<mxfile host="Electron" modified="2023-11-30T03:55:19.748Z" agent="Mozilla/5.0 (X11; Linux x86_64) AppleWebKit/537.36 (KHTML, like Gecko) draw.io/22.1.2 Chrome/114.0.5735.289 Electron/25.9.4 Safari/537.36" etag="Rv9OmvIXVuSpweX_zsMC" version="22.1.2" type="device" pages="3">
  <diagram name="Use cases" id="R_L0ytDR1fHPyuMRT_l6">
    <mxGraphModel dx="1036" dy="659" grid="1" gridSize="10" guides="1" tooltips="1" connect="1" arrows="1" fold="1" page="1" pageScale="1" pageWidth="827" pageHeight="1169" math="0" shadow="0">
      <root>
        <mxCell id="0" />
        <mxCell id="1" parent="0" />
        <mxCell id="T4klbOhKLhSYbk92TfBr-1" value="" style="swimlane;startSize=0;" parent="1" vertex="1">
          <mxGeometry x="120" y="80" width="640" height="1000" as="geometry" />
        </mxCell>
        <mxCell id="T4klbOhKLhSYbk92TfBr-12" value="Login" style="ellipse;whiteSpace=wrap;html=1;" parent="T4klbOhKLhSYbk92TfBr-1" vertex="1">
          <mxGeometry x="40" y="512.5" width="110" height="45" as="geometry" />
        </mxCell>
        <mxCell id="T4klbOhKLhSYbk92TfBr-14" value="Reset Password" style="ellipse;whiteSpace=wrap;html=1;" parent="T4klbOhKLhSYbk92TfBr-1" vertex="1">
          <mxGeometry x="40" y="435" width="110" height="45" as="geometry" />
        </mxCell>
        <mxCell id="T4klbOhKLhSYbk92TfBr-15" value="View account details" style="ellipse;whiteSpace=wrap;html=1;" parent="T4klbOhKLhSYbk92TfBr-1" vertex="1">
          <mxGeometry x="40" y="595" width="110" height="45" as="geometry" />
        </mxCell>
        <mxCell id="nHrpKwlZLE4-OB2LMx2H-42" style="rounded=0;orthogonalLoop=1;jettySize=auto;html=1;exitX=0;exitY=0.5;exitDx=0;exitDy=0;" parent="T4klbOhKLhSYbk92TfBr-1" source="T4klbOhKLhSYbk92TfBr-17" target="T4klbOhKLhSYbk92TfBr-15" edge="1">
          <mxGeometry relative="1" as="geometry" />
        </mxCell>
        <mxCell id="T4klbOhKLhSYbk92TfBr-17" value="Edit&lt;br&gt;&amp;nbsp;account details" style="ellipse;whiteSpace=wrap;html=1;" parent="T4klbOhKLhSYbk92TfBr-1" vertex="1">
          <mxGeometry x="239" y="525" width="110" height="45" as="geometry" />
        </mxCell>
        <mxCell id="nHrpKwlZLE4-OB2LMx2H-41" style="rounded=0;orthogonalLoop=1;jettySize=auto;html=1;entryX=1;entryY=0.5;entryDx=0;entryDy=0;exitX=0;exitY=0.5;exitDx=0;exitDy=0;" parent="T4klbOhKLhSYbk92TfBr-1" source="T4klbOhKLhSYbk92TfBr-18" target="T4klbOhKLhSYbk92TfBr-15" edge="1">
          <mxGeometry relative="1" as="geometry" />
        </mxCell>
        <mxCell id="T4klbOhKLhSYbk92TfBr-18" value="Delete account" style="ellipse;whiteSpace=wrap;html=1;" parent="T4klbOhKLhSYbk92TfBr-1" vertex="1">
          <mxGeometry x="239" y="595" width="110" height="45" as="geometry" />
        </mxCell>
        <mxCell id="nHrpKwlZLE4-OB2LMx2H-1" value="Register" style="ellipse;whiteSpace=wrap;html=1;" parent="T4klbOhKLhSYbk92TfBr-1" vertex="1">
          <mxGeometry x="40" y="75" width="110" height="45" as="geometry" />
        </mxCell>
        <mxCell id="nHrpKwlZLE4-OB2LMx2H-45" style="rounded=0;orthogonalLoop=1;jettySize=auto;html=1;startArrow=classic;startFill=1;endArrow=none;endFill=0;" parent="T4klbOhKLhSYbk92TfBr-1" source="nHrpKwlZLE4-OB2LMx2H-2" target="nHrpKwlZLE4-OB2LMx2H-5" edge="1">
          <mxGeometry relative="1" as="geometry" />
        </mxCell>
        <mxCell id="nHrpKwlZLE4-OB2LMx2H-46" style="rounded=0;orthogonalLoop=1;jettySize=auto;html=1;entryX=0;entryY=0.5;entryDx=0;entryDy=0;startArrow=classic;startFill=1;endArrow=none;endFill=0;" parent="T4klbOhKLhSYbk92TfBr-1" source="nHrpKwlZLE4-OB2LMx2H-2" target="nHrpKwlZLE4-OB2LMx2H-8" edge="1">
          <mxGeometry relative="1" as="geometry" />
        </mxCell>
        <mxCell id="nHrpKwlZLE4-OB2LMx2H-47" style="rounded=0;orthogonalLoop=1;jettySize=auto;html=1;startArrow=classic;startFill=1;endArrow=none;endFill=0;" parent="T4klbOhKLhSYbk92TfBr-1" source="nHrpKwlZLE4-OB2LMx2H-2" target="nHrpKwlZLE4-OB2LMx2H-7" edge="1">
          <mxGeometry relative="1" as="geometry" />
        </mxCell>
        <mxCell id="nHrpKwlZLE4-OB2LMx2H-48" style="rounded=0;orthogonalLoop=1;jettySize=auto;html=1;entryX=0;entryY=0.5;entryDx=0;entryDy=0;startArrow=classic;startFill=1;endArrow=none;endFill=0;" parent="T4klbOhKLhSYbk92TfBr-1" source="nHrpKwlZLE4-OB2LMx2H-2" target="nHrpKwlZLE4-OB2LMx2H-9" edge="1">
          <mxGeometry relative="1" as="geometry" />
        </mxCell>
        <mxCell id="nHrpKwlZLE4-OB2LMx2H-49" style="rounded=0;orthogonalLoop=1;jettySize=auto;html=1;entryX=0;entryY=0.5;entryDx=0;entryDy=0;startArrow=classic;startFill=1;endArrow=none;endFill=0;" parent="T4klbOhKLhSYbk92TfBr-1" source="nHrpKwlZLE4-OB2LMx2H-2" target="nHrpKwlZLE4-OB2LMx2H-10" edge="1">
          <mxGeometry relative="1" as="geometry" />
        </mxCell>
        <mxCell id="nHrpKwlZLE4-OB2LMx2H-50" style="rounded=0;orthogonalLoop=1;jettySize=auto;html=1;entryX=0.284;entryY=0.036;entryDx=0;entryDy=0;startArrow=classic;startFill=1;endArrow=none;endFill=0;entryPerimeter=0;exitX=0.698;exitY=0.922;exitDx=0;exitDy=0;exitPerimeter=0;" parent="T4klbOhKLhSYbk92TfBr-1" source="nHrpKwlZLE4-OB2LMx2H-2" target="nHrpKwlZLE4-OB2LMx2H-6" edge="1">
          <mxGeometry relative="1" as="geometry">
            <mxPoint x="120" y="195" as="sourcePoint" />
          </mxGeometry>
        </mxCell>
        <mxCell id="nHrpKwlZLE4-OB2LMx2H-2" value="View lists" style="ellipse;whiteSpace=wrap;html=1;" parent="T4klbOhKLhSYbk92TfBr-1" vertex="1">
          <mxGeometry x="40" y="153" width="110" height="45" as="geometry" />
        </mxCell>
        <mxCell id="nHrpKwlZLE4-OB2LMx2H-3" value="View archived lists" style="ellipse;whiteSpace=wrap;html=1;" parent="T4klbOhKLhSYbk92TfBr-1" vertex="1">
          <mxGeometry x="40" y="345" width="110" height="45" as="geometry" />
        </mxCell>
        <mxCell id="nHrpKwlZLE4-OB2LMx2H-55" style="edgeStyle=orthogonalEdgeStyle;rounded=0;orthogonalLoop=1;jettySize=auto;html=1;" parent="T4klbOhKLhSYbk92TfBr-1" source="nHrpKwlZLE4-OB2LMx2H-4" target="nHrpKwlZLE4-OB2LMx2H-3" edge="1">
          <mxGeometry relative="1" as="geometry" />
        </mxCell>
        <mxCell id="nHrpKwlZLE4-OB2LMx2H-4" value="Restore list" style="ellipse;whiteSpace=wrap;html=1;" parent="T4klbOhKLhSYbk92TfBr-1" vertex="1">
          <mxGeometry x="239" y="345" width="110" height="45" as="geometry" />
        </mxCell>
        <mxCell id="nHrpKwlZLE4-OB2LMx2H-5" value="Create list" style="ellipse;whiteSpace=wrap;html=1;" parent="T4klbOhKLhSYbk92TfBr-1" vertex="1">
          <mxGeometry x="170" y="30" width="110" height="45" as="geometry" />
        </mxCell>
        <mxCell id="nHrpKwlZLE4-OB2LMx2H-6" value="Archive list" style="ellipse;whiteSpace=wrap;html=1;" parent="T4klbOhKLhSYbk92TfBr-1" vertex="1">
          <mxGeometry x="170" y="275" width="110" height="45" as="geometry" />
        </mxCell>
        <mxCell id="nHrpKwlZLE4-OB2LMx2H-7" value="Edit list" style="ellipse;whiteSpace=wrap;html=1;" parent="T4klbOhKLhSYbk92TfBr-1" vertex="1">
          <mxGeometry x="270" y="75" width="110" height="45" as="geometry" />
        </mxCell>
        <mxCell id="nHrpKwlZLE4-OB2LMx2H-8" value="Move list" style="ellipse;whiteSpace=wrap;html=1;" parent="T4klbOhKLhSYbk92TfBr-1" vertex="1">
          <mxGeometry x="270" y="230" width="110" height="45" as="geometry" />
        </mxCell>
        <mxCell id="nHrpKwlZLE4-OB2LMx2H-9" value="Add item" style="ellipse;whiteSpace=wrap;html=1;" parent="T4klbOhKLhSYbk92TfBr-1" vertex="1">
          <mxGeometry x="360" y="120" width="110" height="45" as="geometry" />
        </mxCell>
        <mxCell id="nHrpKwlZLE4-OB2LMx2H-10" value="View item" style="ellipse;whiteSpace=wrap;html=1;" parent="T4klbOhKLhSYbk92TfBr-1" vertex="1">
          <mxGeometry x="360" y="185" width="110" height="45" as="geometry" />
        </mxCell>
        <mxCell id="nHrpKwlZLE4-OB2LMx2H-52" style="rounded=0;orthogonalLoop=1;jettySize=auto;html=1;entryX=1;entryY=0;entryDx=0;entryDy=0;exitX=0;exitY=1;exitDx=0;exitDy=0;" parent="T4klbOhKLhSYbk92TfBr-1" source="nHrpKwlZLE4-OB2LMx2H-12" target="nHrpKwlZLE4-OB2LMx2H-10" edge="1">
          <mxGeometry relative="1" as="geometry" />
        </mxCell>
        <mxCell id="nHrpKwlZLE4-OB2LMx2H-12" value="Edit item" style="ellipse;whiteSpace=wrap;html=1;" parent="T4klbOhKLhSYbk92TfBr-1" vertex="1">
          <mxGeometry x="490" y="145" width="110" height="45" as="geometry" />
        </mxCell>
        <mxCell id="nHrpKwlZLE4-OB2LMx2H-53" style="rounded=0;orthogonalLoop=1;jettySize=auto;html=1;entryX=1;entryY=1;entryDx=0;entryDy=0;exitX=0;exitY=0;exitDx=0;exitDy=0;" parent="T4klbOhKLhSYbk92TfBr-1" source="nHrpKwlZLE4-OB2LMx2H-13" target="nHrpKwlZLE4-OB2LMx2H-10" edge="1">
          <mxGeometry relative="1" as="geometry">
            <mxPoint x="450" y="221" as="targetPoint" />
          </mxGeometry>
        </mxCell>
        <mxCell id="nHrpKwlZLE4-OB2LMx2H-13" value="Move item" style="ellipse;whiteSpace=wrap;html=1;" parent="T4klbOhKLhSYbk92TfBr-1" vertex="1">
          <mxGeometry x="490" y="225" width="110" height="45" as="geometry" />
        </mxCell>
        <mxCell id="nHrpKwlZLE4-OB2LMx2H-54" style="rounded=0;orthogonalLoop=1;jettySize=auto;html=1;entryX=0.5;entryY=1;entryDx=0;entryDy=0;exitX=0.5;exitY=0;exitDx=0;exitDy=0;" parent="T4klbOhKLhSYbk92TfBr-1" source="nHrpKwlZLE4-OB2LMx2H-14" target="nHrpKwlZLE4-OB2LMx2H-10" edge="1">
          <mxGeometry relative="1" as="geometry" />
        </mxCell>
        <mxCell id="nHrpKwlZLE4-OB2LMx2H-14" value="Delete item" style="ellipse;whiteSpace=wrap;html=1;" parent="T4klbOhKLhSYbk92TfBr-1" vertex="1">
          <mxGeometry x="390" y="275" width="110" height="45" as="geometry" />
        </mxCell>
        <mxCell id="nHrpKwlZLE4-OB2LMx2H-15" value="List users" style="ellipse;whiteSpace=wrap;html=1;" parent="T4klbOhKLhSYbk92TfBr-1" vertex="1">
          <mxGeometry x="40" y="760" width="110" height="45" as="geometry" />
        </mxCell>
        <mxCell id="nHrpKwlZLE4-OB2LMx2H-16" value="View logs" style="ellipse;whiteSpace=wrap;html=1;" parent="T4klbOhKLhSYbk92TfBr-1" vertex="1">
          <mxGeometry x="40" y="910" width="110" height="45" as="geometry" />
        </mxCell>
        <mxCell id="nHrpKwlZLE4-OB2LMx2H-36" style="edgeStyle=orthogonalEdgeStyle;rounded=0;orthogonalLoop=1;jettySize=auto;html=1;entryX=1;entryY=0.5;entryDx=0;entryDy=0;" parent="T4klbOhKLhSYbk92TfBr-1" source="nHrpKwlZLE4-OB2LMx2H-17" target="nHrpKwlZLE4-OB2LMx2H-16" edge="1">
          <mxGeometry relative="1" as="geometry" />
        </mxCell>
        <mxCell id="nHrpKwlZLE4-OB2LMx2H-17" value="View log details" style="ellipse;whiteSpace=wrap;html=1;" parent="T4klbOhKLhSYbk92TfBr-1" vertex="1">
          <mxGeometry x="200" y="910" width="110" height="45" as="geometry" />
        </mxCell>
        <mxCell id="nHrpKwlZLE4-OB2LMx2H-33" style="rounded=0;orthogonalLoop=1;jettySize=auto;html=1;entryX=0.5;entryY=1;entryDx=0;entryDy=0;" parent="T4klbOhKLhSYbk92TfBr-1" source="nHrpKwlZLE4-OB2LMx2H-19" target="ipo6P1OpPq1cQxeRZkCc-1" edge="1">
          <mxGeometry relative="1" as="geometry">
            <mxPoint x="175" y="805.0000000000002" as="targetPoint" />
          </mxGeometry>
        </mxCell>
        <mxCell id="nHrpKwlZLE4-OB2LMx2H-19" value="Delete user" style="ellipse;whiteSpace=wrap;html=1;" parent="T4klbOhKLhSYbk92TfBr-1" vertex="1">
          <mxGeometry x="320" y="840" width="110" height="45" as="geometry" />
        </mxCell>
        <mxCell id="nHrpKwlZLE4-OB2LMx2H-31" style="rounded=0;orthogonalLoop=1;jettySize=auto;html=1;entryX=1;entryY=1;entryDx=0;entryDy=0;" parent="T4klbOhKLhSYbk92TfBr-1" source="nHrpKwlZLE4-OB2LMx2H-20" target="ipo6P1OpPq1cQxeRZkCc-1" edge="1">
          <mxGeometry relative="1" as="geometry">
            <mxPoint x="214.14096724328874" y="798.3069290790204" as="targetPoint" />
          </mxGeometry>
        </mxCell>
        <mxCell id="nHrpKwlZLE4-OB2LMx2H-20" value="View user logs" style="ellipse;whiteSpace=wrap;html=1;" parent="T4klbOhKLhSYbk92TfBr-1" vertex="1">
          <mxGeometry x="440" y="815" width="110" height="45" as="geometry" />
        </mxCell>
        <mxCell id="nHrpKwlZLE4-OB2LMx2H-30" style="rounded=0;orthogonalLoop=1;jettySize=auto;html=1;entryX=1;entryY=0.5;entryDx=0;entryDy=0;" parent="T4klbOhKLhSYbk92TfBr-1" source="nHrpKwlZLE4-OB2LMx2H-21" target="ipo6P1OpPq1cQxeRZkCc-1" edge="1">
          <mxGeometry relative="1" as="geometry">
            <mxPoint x="229.01000000000022" y="791.5" as="targetPoint" />
          </mxGeometry>
        </mxCell>
        <mxCell id="nHrpKwlZLE4-OB2LMx2H-21" value="Assign role" style="ellipse;whiteSpace=wrap;html=1;" parent="T4klbOhKLhSYbk92TfBr-1" vertex="1">
          <mxGeometry x="490" y="760" width="110" height="45" as="geometry" />
        </mxCell>
        <mxCell id="nHrpKwlZLE4-OB2LMx2H-29" style="rounded=0;orthogonalLoop=1;jettySize=auto;html=1;entryX=1;entryY=0;entryDx=0;entryDy=0;" parent="T4klbOhKLhSYbk92TfBr-1" source="nHrpKwlZLE4-OB2LMx2H-22" target="ipo6P1OpPq1cQxeRZkCc-1" edge="1">
          <mxGeometry relative="1" as="geometry">
            <mxPoint x="229.99999999999932" y="782.5000000000002" as="targetPoint" />
          </mxGeometry>
        </mxCell>
        <mxCell id="nHrpKwlZLE4-OB2LMx2H-22" value="Reset user password" style="ellipse;whiteSpace=wrap;html=1;" parent="T4klbOhKLhSYbk92TfBr-1" vertex="1">
          <mxGeometry x="440" y="705" width="110" height="45" as="geometry" />
        </mxCell>
        <mxCell id="nHrpKwlZLE4-OB2LMx2H-35" style="rounded=0;orthogonalLoop=1;jettySize=auto;html=1;entryX=0.5;entryY=0;entryDx=0;entryDy=0;" parent="T4klbOhKLhSYbk92TfBr-1" source="nHrpKwlZLE4-OB2LMx2H-23" target="ipo6P1OpPq1cQxeRZkCc-1" edge="1">
          <mxGeometry relative="1" as="geometry">
            <mxPoint x="220" y="770" as="targetPoint" />
          </mxGeometry>
        </mxCell>
        <mxCell id="nHrpKwlZLE4-OB2LMx2H-23" value="Block user" style="ellipse;whiteSpace=wrap;html=1;" parent="T4klbOhKLhSYbk92TfBr-1" vertex="1">
          <mxGeometry x="320" y="680" width="110" height="45" as="geometry" />
        </mxCell>
        <mxCell id="nHrpKwlZLE4-OB2LMx2H-34" style="rounded=0;orthogonalLoop=1;jettySize=auto;html=1;entryX=1;entryY=0;entryDx=0;entryDy=0;" parent="T4klbOhKLhSYbk92TfBr-1" source="nHrpKwlZLE4-OB2LMx2H-24" target="nHrpKwlZLE4-OB2LMx2H-15" edge="1">
          <mxGeometry relative="1" as="geometry">
            <mxPoint x="175" y="760.0000000000002" as="targetPoint" />
          </mxGeometry>
        </mxCell>
        <mxCell id="nHrpKwlZLE4-OB2LMx2H-24" value="Filter users" style="ellipse;whiteSpace=wrap;html=1;" parent="T4klbOhKLhSYbk92TfBr-1" vertex="1">
          <mxGeometry x="129" y="680" width="110" height="45" as="geometry" />
        </mxCell>
        <mxCell id="nHrpKwlZLE4-OB2LMx2H-58" style="rounded=0;orthogonalLoop=1;jettySize=auto;html=1;entryX=0.5;entryY=1;entryDx=0;entryDy=0;exitX=0.5;exitY=0;exitDx=0;exitDy=0;" parent="T4klbOhKLhSYbk92TfBr-1" source="nHrpKwlZLE4-OB2LMx2H-57" target="nHrpKwlZLE4-OB2LMx2H-2" edge="1">
          <mxGeometry relative="1" as="geometry" />
        </mxCell>
        <mxCell id="ipo6P1OpPq1cQxeRZkCc-5" style="rounded=0;orthogonalLoop=1;jettySize=auto;html=1;entryX=0.5;entryY=0;entryDx=0;entryDy=0;exitX=0.5;exitY=1;exitDx=0;exitDy=0;" parent="T4klbOhKLhSYbk92TfBr-1" source="nHrpKwlZLE4-OB2LMx2H-57" target="nHrpKwlZLE4-OB2LMx2H-3" edge="1">
          <mxGeometry relative="1" as="geometry" />
        </mxCell>
        <mxCell id="nHrpKwlZLE4-OB2LMx2H-57" value="Delete list" style="ellipse;whiteSpace=wrap;html=1;" parent="T4klbOhKLhSYbk92TfBr-1" vertex="1">
          <mxGeometry x="40" y="275" width="110" height="45" as="geometry" />
        </mxCell>
        <mxCell id="ipo6P1OpPq1cQxeRZkCc-2" style="edgeStyle=orthogonalEdgeStyle;rounded=0;orthogonalLoop=1;jettySize=auto;html=1;" parent="T4klbOhKLhSYbk92TfBr-1" source="ipo6P1OpPq1cQxeRZkCc-1" target="nHrpKwlZLE4-OB2LMx2H-15" edge="1">
          <mxGeometry relative="1" as="geometry" />
        </mxCell>
        <mxCell id="ipo6P1OpPq1cQxeRZkCc-1" value="View user details" style="ellipse;whiteSpace=wrap;html=1;" parent="T4klbOhKLhSYbk92TfBr-1" vertex="1">
          <mxGeometry x="200" y="760" width="110" height="45" as="geometry" />
        </mxCell>
        <mxCell id="T4klbOhKLhSYbk92TfBr-2" value="App" style="text;html=1;align=center;verticalAlign=middle;resizable=0;points=[];autosize=1;strokeColor=none;fillColor=none;fontStyle=1;fontSize=16;" parent="1" vertex="1">
          <mxGeometry x="415" y="40" width="50" height="30" as="geometry" />
        </mxCell>
        <mxCell id="T4klbOhKLhSYbk92TfBr-10" style="edgeStyle=orthogonalEdgeStyle;rounded=0;orthogonalLoop=1;jettySize=auto;html=1;targetPerimeterSpacing=0;" parent="1" edge="1">
          <mxGeometry relative="1" as="geometry">
            <mxPoint x="55" y="570" as="targetPoint" />
            <mxPoint x="55" y="330" as="sourcePoint" />
          </mxGeometry>
        </mxCell>
        <mxCell id="nHrpKwlZLE4-OB2LMx2H-43" style="rounded=0;orthogonalLoop=1;jettySize=auto;html=1;entryX=0;entryY=0.5;entryDx=0;entryDy=0;endArrow=none;endFill=0;" parent="1" target="nHrpKwlZLE4-OB2LMx2H-1" edge="1">
          <mxGeometry relative="1" as="geometry">
            <mxPoint x="70.00000000000011" y="250.07142857142856" as="sourcePoint" />
            <mxPoint x="159.99999999999977" y="187.5" as="targetPoint" />
          </mxGeometry>
        </mxCell>
        <mxCell id="nHrpKwlZLE4-OB2LMx2H-44" style="rounded=0;orthogonalLoop=1;jettySize=auto;html=1;endArrow=none;endFill=0;" parent="1" source="T4klbOhKLhSYbk92TfBr-3" target="nHrpKwlZLE4-OB2LMx2H-2" edge="1">
          <mxGeometry relative="1" as="geometry">
            <mxPoint x="70" y="260" as="sourcePoint" />
          </mxGeometry>
        </mxCell>
        <mxCell id="nHrpKwlZLE4-OB2LMx2H-56" style="rounded=0;orthogonalLoop=1;jettySize=auto;html=1;entryX=0;entryY=0.5;entryDx=0;entryDy=0;endArrow=none;endFill=0;" parent="1" target="nHrpKwlZLE4-OB2LMx2H-3" edge="1">
          <mxGeometry relative="1" as="geometry">
            <mxPoint x="70.00000000000011" y="270.6428571428571" as="sourcePoint" />
            <mxPoint x="159.99999999999977" y="439.5000000000001" as="targetPoint" />
          </mxGeometry>
        </mxCell>
        <mxCell id="T4klbOhKLhSYbk92TfBr-3" value="Regular&lt;br&gt;user" style="shape=umlActor;verticalLabelPosition=bottom;verticalAlign=top;html=1;outlineConnect=0;" parent="1" vertex="1">
          <mxGeometry x="40" y="225.5" width="30" height="60" as="geometry" />
        </mxCell>
        <mxCell id="T4klbOhKLhSYbk92TfBr-8" style="edgeStyle=orthogonalEdgeStyle;rounded=0;orthogonalLoop=1;jettySize=auto;html=1;" parent="1" edge="1">
          <mxGeometry relative="1" as="geometry">
            <mxPoint x="55" y="670" as="targetPoint" />
            <mxPoint x="55" y="890" as="sourcePoint" />
          </mxGeometry>
        </mxCell>
        <mxCell id="nHrpKwlZLE4-OB2LMx2H-37" style="rounded=0;orthogonalLoop=1;jettySize=auto;html=1;endArrow=none;endFill=0;entryX=0;entryY=0.5;entryDx=0;entryDy=0;" parent="1" target="nHrpKwlZLE4-OB2LMx2H-15" edge="1">
          <mxGeometry relative="1" as="geometry">
            <mxPoint x="70.00000000000011" y="929.0714285714287" as="sourcePoint" />
            <mxPoint x="159.99999999999977" y="875.5" as="targetPoint" />
          </mxGeometry>
        </mxCell>
        <mxCell id="nHrpKwlZLE4-OB2LMx2H-51" style="rounded=0;orthogonalLoop=1;jettySize=auto;html=1;entryX=0;entryY=0.5;entryDx=0;entryDy=0;endArrow=none;endFill=0;" parent="1" source="T4klbOhKLhSYbk92TfBr-4" target="nHrpKwlZLE4-OB2LMx2H-16" edge="1">
          <mxGeometry relative="1" as="geometry" />
        </mxCell>
        <mxCell id="T4klbOhKLhSYbk92TfBr-4" value="Administrator" style="shape=umlActor;verticalLabelPosition=bottom;verticalAlign=top;html=1;outlineConnect=0;" parent="1" vertex="1">
          <mxGeometry x="40" y="900" width="30" height="60" as="geometry" />
        </mxCell>
        <mxCell id="nHrpKwlZLE4-OB2LMx2H-38" style="rounded=0;orthogonalLoop=1;jettySize=auto;html=1;endArrow=none;endFill=0;" parent="1" target="T4klbOhKLhSYbk92TfBr-12" edge="1">
          <mxGeometry relative="1" as="geometry">
            <mxPoint x="70" y="615" as="sourcePoint" />
          </mxGeometry>
        </mxCell>
        <mxCell id="nHrpKwlZLE4-OB2LMx2H-39" style="rounded=0;orthogonalLoop=1;jettySize=auto;html=1;entryX=0;entryY=0.5;entryDx=0;entryDy=0;endArrow=none;endFill=0;" parent="1" target="T4klbOhKLhSYbk92TfBr-14" edge="1">
          <mxGeometry relative="1" as="geometry">
            <mxPoint x="70" y="603" as="sourcePoint" />
            <mxPoint x="159.99999999999977" y="545.5000000000001" as="targetPoint" />
          </mxGeometry>
        </mxCell>
        <mxCell id="nHrpKwlZLE4-OB2LMx2H-40" style="rounded=0;orthogonalLoop=1;jettySize=auto;html=1;entryX=0;entryY=0.5;entryDx=0;entryDy=0;endArrow=none;endFill=0;" parent="1" target="T4klbOhKLhSYbk92TfBr-15" edge="1">
          <mxGeometry relative="1" as="geometry">
            <mxPoint x="70" y="625" as="sourcePoint" />
            <mxPoint x="159.99999999999977" y="692.5" as="targetPoint" />
          </mxGeometry>
        </mxCell>
        <mxCell id="T4klbOhKLhSYbk92TfBr-5" value="User" style="shape=umlActor;verticalLabelPosition=bottom;verticalAlign=top;html=1;outlineConnect=0;" parent="1" vertex="1">
          <mxGeometry x="40" y="577.5" width="30" height="60" as="geometry" />
        </mxCell>
      </root>
    </mxGraphModel>
  </diagram>
  <diagram id="jQBmEqGs-uSte4CQtq3J" name="Classes">
    <mxGraphModel dx="1036" dy="659" grid="1" gridSize="10" guides="1" tooltips="1" connect="1" arrows="1" fold="1" page="1" pageScale="1" pageWidth="827" pageHeight="1169" math="0" shadow="0">
      <root>
        <mxCell id="0" />
        <mxCell id="1" parent="0" />
        <mxCell id="UJWupGd6_paWMFlxze29-12" style="edgeStyle=orthogonalEdgeStyle;rounded=0;orthogonalLoop=1;jettySize=auto;html=1;entryX=-0.014;entryY=0.111;entryDx=0;entryDy=0;entryPerimeter=0;endArrow=none;endFill=0;startArrow=diamondThin;startFill=1;" parent="1" source="fwzKxiqjFKTYBCsEdSLr-1" target="fwzKxiqjFKTYBCsEdSLr-16" edge="1">
          <mxGeometry relative="1" as="geometry" />
        </mxCell>
        <mxCell id="UJWupGd6_paWMFlxze29-13" value="1..*" style="edgeLabel;html=1;align=center;verticalAlign=middle;resizable=0;points=[];" parent="UJWupGd6_paWMFlxze29-12" vertex="1" connectable="0">
          <mxGeometry x="0.7253" y="3" relative="1" as="geometry">
            <mxPoint x="15" as="offset" />
          </mxGeometry>
        </mxCell>
        <mxCell id="UJWupGd6_paWMFlxze29-14" value="1" style="edgeLabel;html=1;align=center;verticalAlign=middle;resizable=0;points=[];" parent="UJWupGd6_paWMFlxze29-12" vertex="1" connectable="0">
          <mxGeometry x="-0.8374" y="4" relative="1" as="geometry">
            <mxPoint as="offset" />
          </mxGeometry>
        </mxCell>
        <mxCell id="UJWupGd6_paWMFlxze29-25" style="edgeStyle=orthogonalEdgeStyle;rounded=0;orthogonalLoop=1;jettySize=auto;html=1;entryX=0.5;entryY=0;entryDx=0;entryDy=0;endArrow=none;endFill=0;" parent="1" source="fwzKxiqjFKTYBCsEdSLr-1" target="fwzKxiqjFKTYBCsEdSLr-79" edge="1">
          <mxGeometry relative="1" as="geometry" />
        </mxCell>
        <mxCell id="UJWupGd6_paWMFlxze29-26" value="0..2" style="edgeLabel;html=1;align=center;verticalAlign=middle;resizable=0;points=[];" parent="UJWupGd6_paWMFlxze29-25" vertex="1" connectable="0">
          <mxGeometry x="-0.7674" y="-1" relative="1" as="geometry">
            <mxPoint y="4" as="offset" />
          </mxGeometry>
        </mxCell>
        <mxCell id="UJWupGd6_paWMFlxze29-27" value="0..*" style="edgeLabel;html=1;align=center;verticalAlign=middle;resizable=0;points=[];" parent="UJWupGd6_paWMFlxze29-25" vertex="1" connectable="0">
          <mxGeometry x="0.6978" y="-1" relative="1" as="geometry">
            <mxPoint y="-2" as="offset" />
          </mxGeometry>
        </mxCell>
        <mxCell id="fwzKxiqjFKTYBCsEdSLr-1" value="User" style="swimlane;fontStyle=1;align=center;verticalAlign=top;childLayout=stackLayout;horizontal=1;startSize=26;horizontalStack=0;resizeParent=1;resizeParentMax=0;resizeLast=0;collapsible=1;marginBottom=0;whiteSpace=wrap;html=1;" parent="1" vertex="1">
          <mxGeometry x="40" y="230" width="210" height="424" as="geometry">
            <mxRectangle x="330" y="280" width="70" height="30" as="alternateBounds" />
          </mxGeometry>
        </mxCell>
        <mxCell id="fwzKxiqjFKTYBCsEdSLr-5" value="+ firstName: String" style="text;strokeColor=none;fillColor=none;align=left;verticalAlign=top;spacingLeft=4;spacingRight=4;overflow=hidden;rotatable=0;points=[[0,0.5],[1,0.5]];portConstraint=eastwest;whiteSpace=wrap;html=1;" parent="fwzKxiqjFKTYBCsEdSLr-1" vertex="1">
          <mxGeometry y="26" width="210" height="26" as="geometry" />
        </mxCell>
        <mxCell id="fwzKxiqjFKTYBCsEdSLr-7" value="+ lastName: String" style="text;strokeColor=none;fillColor=none;align=left;verticalAlign=top;spacingLeft=4;spacingRight=4;overflow=hidden;rotatable=0;points=[[0,0.5],[1,0.5]];portConstraint=eastwest;whiteSpace=wrap;html=1;" parent="fwzKxiqjFKTYBCsEdSLr-1" vertex="1">
          <mxGeometry y="52" width="210" height="26" as="geometry" />
        </mxCell>
        <mxCell id="fwzKxiqjFKTYBCsEdSLr-10" value="+ email: String" style="text;strokeColor=none;fillColor=none;align=left;verticalAlign=top;spacingLeft=4;spacingRight=4;overflow=hidden;rotatable=0;points=[[0,0.5],[1,0.5]];portConstraint=eastwest;whiteSpace=wrap;html=1;" parent="fwzKxiqjFKTYBCsEdSLr-1" vertex="1">
          <mxGeometry y="78" width="210" height="26" as="geometry" />
        </mxCell>
        <mxCell id="fwzKxiqjFKTYBCsEdSLr-9" value="+ password: String" style="text;strokeColor=none;fillColor=none;align=left;verticalAlign=top;spacingLeft=4;spacingRight=4;overflow=hidden;rotatable=0;points=[[0,0.5],[1,0.5]];portConstraint=eastwest;whiteSpace=wrap;html=1;" parent="fwzKxiqjFKTYBCsEdSLr-1" vertex="1">
          <mxGeometry y="104" width="210" height="26" as="geometry" />
        </mxCell>
        <mxCell id="GA50yoQxbBIJLHn_H_bA-1" value="+ defaultCurrency: String" style="text;strokeColor=none;fillColor=none;align=left;verticalAlign=top;spacingLeft=4;spacingRight=4;overflow=hidden;rotatable=0;points=[[0,0.5],[1,0.5]];portConstraint=eastwest;whiteSpace=wrap;html=1;" parent="fwzKxiqjFKTYBCsEdSLr-1" vertex="1">
          <mxGeometry y="130" width="210" height="26" as="geometry" />
        </mxCell>
        <mxCell id="GA50yoQxbBIJLHn_H_bA-2" value="+ preferredLocale: String" style="text;strokeColor=none;fillColor=none;align=left;verticalAlign=top;spacingLeft=4;spacingRight=4;overflow=hidden;rotatable=0;points=[[0,0.5],[1,0.5]];portConstraint=eastwest;whiteSpace=wrap;html=1;" parent="fwzKxiqjFKTYBCsEdSLr-1" vertex="1">
          <mxGeometry y="156" width="210" height="26" as="geometry" />
        </mxCell>
        <mxCell id="fwzKxiqjFKTYBCsEdSLr-12" value="+ isBlocked: Boolean" style="text;strokeColor=none;fillColor=none;align=left;verticalAlign=top;spacingLeft=4;spacingRight=4;overflow=hidden;rotatable=0;points=[[0,0.5],[1,0.5]];portConstraint=eastwest;whiteSpace=wrap;html=1;" parent="fwzKxiqjFKTYBCsEdSLr-1" vertex="1">
          <mxGeometry y="182" width="210" height="26" as="geometry" />
        </mxCell>
        <mxCell id="fwzKxiqjFKTYBCsEdSLr-11" value="+ createdAt: Date" style="text;strokeColor=none;fillColor=none;align=left;verticalAlign=top;spacingLeft=4;spacingRight=4;overflow=hidden;rotatable=0;points=[[0,0.5],[1,0.5]];portConstraint=eastwest;whiteSpace=wrap;html=1;" parent="fwzKxiqjFKTYBCsEdSLr-1" vertex="1">
          <mxGeometry y="208" width="210" height="26" as="geometry" />
        </mxCell>
        <mxCell id="fwzKxiqjFKTYBCsEdSLr-6" value="+ updatedAt: Date" style="text;strokeColor=none;fillColor=none;align=left;verticalAlign=top;spacingLeft=4;spacingRight=4;overflow=hidden;rotatable=0;points=[[0,0.5],[1,0.5]];portConstraint=eastwest;whiteSpace=wrap;html=1;" parent="fwzKxiqjFKTYBCsEdSLr-1" vertex="1">
          <mxGeometry y="234" width="210" height="26" as="geometry" />
        </mxCell>
        <mxCell id="fwzKxiqjFKTYBCsEdSLr-3" value="" style="line;strokeWidth=1;fillColor=none;align=left;verticalAlign=middle;spacingTop=-1;spacingLeft=3;spacingRight=3;rotatable=0;labelPosition=right;points=[];portConstraint=eastwest;strokeColor=inherit;" parent="fwzKxiqjFKTYBCsEdSLr-1" vertex="1">
          <mxGeometry y="260" width="210" height="8" as="geometry" />
        </mxCell>
        <mxCell id="fwzKxiqjFKTYBCsEdSLr-13" value="+ login(email, password): Session?" style="text;strokeColor=none;fillColor=none;align=left;verticalAlign=top;spacingLeft=4;spacingRight=4;overflow=hidden;rotatable=0;points=[[0,0.5],[1,0.5]];portConstraint=eastwest;whiteSpace=wrap;html=1;" parent="fwzKxiqjFKTYBCsEdSLr-1" vertex="1">
          <mxGeometry y="268" width="210" height="26" as="geometry" />
        </mxCell>
        <mxCell id="nWMx8fwUnKeUdR7Ltl_S-1" value="+ resetPassword(): Boolean" style="text;strokeColor=none;fillColor=none;align=left;verticalAlign=top;spacingLeft=4;spacingRight=4;overflow=hidden;rotatable=0;points=[[0,0.5],[1,0.5]];portConstraint=eastwest;whiteSpace=wrap;html=1;" parent="fwzKxiqjFKTYBCsEdSLr-1" vertex="1">
          <mxGeometry y="294" width="210" height="26" as="geometry" />
        </mxCell>
        <mxCell id="fwzKxiqjFKTYBCsEdSLr-14" value="+ changeRol(Rol): Boolean" style="text;strokeColor=none;fillColor=none;align=left;verticalAlign=top;spacingLeft=4;spacingRight=4;overflow=hidden;rotatable=0;points=[[0,0.5],[1,0.5]];portConstraint=eastwest;whiteSpace=wrap;html=1;" parent="fwzKxiqjFKTYBCsEdSLr-1" vertex="1">
          <mxGeometry y="320" width="210" height="26" as="geometry" />
        </mxCell>
        <mxCell id="nWMx8fwUnKeUdR7Ltl_S-2" value="+ isAdmin(): Boolean" style="text;strokeColor=none;fillColor=none;align=left;verticalAlign=top;spacingLeft=4;spacingRight=4;overflow=hidden;rotatable=0;points=[[0,0.5],[1,0.5]];portConstraint=eastwest;whiteSpace=wrap;html=1;" parent="fwzKxiqjFKTYBCsEdSLr-1" vertex="1">
          <mxGeometry y="346" width="210" height="26" as="geometry" />
        </mxCell>
        <mxCell id="fwzKxiqjFKTYBCsEdSLr-15" value="+ createDefaultAdmin(): User" style="text;strokeColor=none;fillColor=none;align=left;verticalAlign=top;spacingLeft=4;spacingRight=4;overflow=hidden;rotatable=0;points=[[0,0.5],[1,0.5]];portConstraint=eastwest;whiteSpace=wrap;html=1;" parent="fwzKxiqjFKTYBCsEdSLr-1" vertex="1">
          <mxGeometry y="372" width="210" height="26" as="geometry" />
        </mxCell>
        <mxCell id="fwzKxiqjFKTYBCsEdSLr-62" value="+ delete(): Boolean" style="text;strokeColor=none;fillColor=none;align=left;verticalAlign=top;spacingLeft=4;spacingRight=4;overflow=hidden;rotatable=0;points=[[0,0.5],[1,0.5]];portConstraint=eastwest;whiteSpace=wrap;html=1;" parent="fwzKxiqjFKTYBCsEdSLr-1" vertex="1">
          <mxGeometry y="398" width="210" height="26" as="geometry" />
        </mxCell>
        <mxCell id="UJWupGd6_paWMFlxze29-15" style="edgeStyle=orthogonalEdgeStyle;rounded=0;orthogonalLoop=1;jettySize=auto;html=1;endArrow=none;endFill=0;startArrow=diamondThin;startFill=1;" parent="1" source="fwzKxiqjFKTYBCsEdSLr-16" target="fwzKxiqjFKTYBCsEdSLr-31" edge="1">
          <mxGeometry relative="1" as="geometry" />
        </mxCell>
        <mxCell id="UJWupGd6_paWMFlxze29-16" value="0..*" style="edgeLabel;html=1;align=center;verticalAlign=middle;resizable=0;points=[];" parent="UJWupGd6_paWMFlxze29-15" vertex="1" connectable="0">
          <mxGeometry x="0.4848" relative="1" as="geometry">
            <mxPoint x="12" y="-4" as="offset" />
          </mxGeometry>
        </mxCell>
        <mxCell id="UJWupGd6_paWMFlxze29-17" value="1" style="edgeLabel;html=1;align=center;verticalAlign=middle;resizable=0;points=[];" parent="UJWupGd6_paWMFlxze29-15" vertex="1" connectable="0">
          <mxGeometry x="-0.7273" y="-2" relative="1" as="geometry">
            <mxPoint x="2" y="-4" as="offset" />
          </mxGeometry>
        </mxCell>
        <mxCell id="fwzKxiqjFKTYBCsEdSLr-16" value="Workspace" style="swimlane;fontStyle=1;align=center;verticalAlign=top;childLayout=stackLayout;horizontal=1;startSize=26;horizontalStack=0;resizeParent=1;resizeParentMax=0;resizeLast=0;collapsible=1;marginBottom=0;whiteSpace=wrap;html=1;" parent="1" vertex="1">
          <mxGeometry x="330" y="230" width="180" height="138" as="geometry">
            <mxRectangle x="330" y="280" width="70" height="30" as="alternateBounds" />
          </mxGeometry>
        </mxCell>
        <mxCell id="fwzKxiqjFKTYBCsEdSLr-17" value="+ name: String" style="text;strokeColor=none;fillColor=none;align=left;verticalAlign=top;spacingLeft=4;spacingRight=4;overflow=hidden;rotatable=0;points=[[0,0.5],[1,0.5]];portConstraint=eastwest;whiteSpace=wrap;html=1;" parent="fwzKxiqjFKTYBCsEdSLr-16" vertex="1">
          <mxGeometry y="26" width="180" height="26" as="geometry" />
        </mxCell>
        <mxCell id="fwzKxiqjFKTYBCsEdSLr-23" value="+ isDefault: Boolean" style="text;strokeColor=none;fillColor=none;align=left;verticalAlign=top;spacingLeft=4;spacingRight=4;overflow=hidden;rotatable=0;points=[[0,0.5],[1,0.5]];portConstraint=eastwest;whiteSpace=wrap;html=1;" parent="fwzKxiqjFKTYBCsEdSLr-16" vertex="1">
          <mxGeometry y="52" width="180" height="26" as="geometry" />
        </mxCell>
        <mxCell id="fwzKxiqjFKTYBCsEdSLr-24" value="+ createdAt: Date" style="text;strokeColor=none;fillColor=none;align=left;verticalAlign=top;spacingLeft=4;spacingRight=4;overflow=hidden;rotatable=0;points=[[0,0.5],[1,0.5]];portConstraint=eastwest;whiteSpace=wrap;html=1;" parent="fwzKxiqjFKTYBCsEdSLr-16" vertex="1">
          <mxGeometry y="78" width="180" height="26" as="geometry" />
        </mxCell>
        <mxCell id="fwzKxiqjFKTYBCsEdSLr-25" value="+ updatedAt: Date" style="text;strokeColor=none;fillColor=none;align=left;verticalAlign=top;spacingLeft=4;spacingRight=4;overflow=hidden;rotatable=0;points=[[0,0.5],[1,0.5]];portConstraint=eastwest;whiteSpace=wrap;html=1;" parent="fwzKxiqjFKTYBCsEdSLr-16" vertex="1">
          <mxGeometry y="104" width="180" height="26" as="geometry" />
        </mxCell>
        <mxCell id="fwzKxiqjFKTYBCsEdSLr-26" value="" style="line;strokeWidth=1;fillColor=none;align=left;verticalAlign=middle;spacingTop=-1;spacingLeft=3;spacingRight=3;rotatable=0;labelPosition=right;points=[];portConstraint=eastwest;strokeColor=inherit;" parent="fwzKxiqjFKTYBCsEdSLr-16" vertex="1">
          <mxGeometry y="130" width="180" height="8" as="geometry" />
        </mxCell>
        <mxCell id="UJWupGd6_paWMFlxze29-18" style="edgeStyle=orthogonalEdgeStyle;rounded=0;orthogonalLoop=1;jettySize=auto;html=1;entryX=0.5;entryY=0;entryDx=0;entryDy=0;endArrow=none;endFill=0;startArrow=diamondThin;startFill=1;" parent="1" source="fwzKxiqjFKTYBCsEdSLr-31" target="fwzKxiqjFKTYBCsEdSLr-64" edge="1">
          <mxGeometry relative="1" as="geometry" />
        </mxCell>
        <mxCell id="UJWupGd6_paWMFlxze29-19" value="1" style="edgeLabel;html=1;align=center;verticalAlign=middle;resizable=0;points=[];" parent="UJWupGd6_paWMFlxze29-18" vertex="1" connectable="0">
          <mxGeometry x="-0.6725" y="1" relative="1" as="geometry">
            <mxPoint x="-6" y="3" as="offset" />
          </mxGeometry>
        </mxCell>
        <mxCell id="UJWupGd6_paWMFlxze29-20" value="0..*" style="edgeLabel;html=1;align=center;verticalAlign=middle;resizable=0;points=[];" parent="UJWupGd6_paWMFlxze29-18" vertex="1" connectable="0">
          <mxGeometry x="0.6516" y="1" relative="1" as="geometry">
            <mxPoint as="offset" />
          </mxGeometry>
        </mxCell>
        <mxCell id="fwzKxiqjFKTYBCsEdSLr-31" value="List" style="swimlane;fontStyle=1;align=center;verticalAlign=top;childLayout=stackLayout;horizontal=1;startSize=26;horizontalStack=0;resizeParent=1;resizeParentMax=0;resizeLast=0;collapsible=1;marginBottom=0;whiteSpace=wrap;html=1;" parent="1" vertex="1">
          <mxGeometry x="590" y="230" width="210" height="268" as="geometry">
            <mxRectangle x="330" y="280" width="70" height="30" as="alternateBounds" />
          </mxGeometry>
        </mxCell>
        <mxCell id="fwzKxiqjFKTYBCsEdSLr-32" value="+ name: String" style="text;strokeColor=none;fillColor=none;align=left;verticalAlign=top;spacingLeft=4;spacingRight=4;overflow=hidden;rotatable=0;points=[[0,0.5],[1,0.5]];portConstraint=eastwest;whiteSpace=wrap;html=1;" parent="fwzKxiqjFKTYBCsEdSLr-31" vertex="1">
          <mxGeometry y="26" width="210" height="26" as="geometry" />
        </mxCell>
        <mxCell id="fwzKxiqjFKTYBCsEdSLr-33" value="+ order: Integer" style="text;strokeColor=none;fillColor=none;align=left;verticalAlign=top;spacingLeft=4;spacingRight=4;overflow=hidden;rotatable=0;points=[[0,0.5],[1,0.5]];portConstraint=eastwest;whiteSpace=wrap;html=1;" parent="fwzKxiqjFKTYBCsEdSLr-31" vertex="1">
          <mxGeometry y="52" width="210" height="26" as="geometry" />
        </mxCell>
        <mxCell id="GA50yoQxbBIJLHn_H_bA-4" value="+ currency: String" style="text;strokeColor=none;fillColor=none;align=left;verticalAlign=top;spacingLeft=4;spacingRight=4;overflow=hidden;rotatable=0;points=[[0,0.5],[1,0.5]];portConstraint=eastwest;whiteSpace=wrap;html=1;" parent="fwzKxiqjFKTYBCsEdSLr-31" vertex="1">
          <mxGeometry y="78" width="210" height="26" as="geometry" />
        </mxCell>
        <mxCell id="fwzKxiqjFKTYBCsEdSLr-34" value="+ total: String" style="text;strokeColor=none;fillColor=none;align=left;verticalAlign=top;spacingLeft=4;spacingRight=4;overflow=hidden;rotatable=0;points=[[0,0.5],[1,0.5]];portConstraint=eastwest;whiteSpace=wrap;html=1;" parent="fwzKxiqjFKTYBCsEdSLr-31" vertex="1">
          <mxGeometry y="104" width="210" height="26" as="geometry" />
        </mxCell>
        <mxCell id="fwzKxiqjFKTYBCsEdSLr-38" value="+ isArchived: Boolean" style="text;strokeColor=none;fillColor=none;align=left;verticalAlign=top;spacingLeft=4;spacingRight=4;overflow=hidden;rotatable=0;points=[[0,0.5],[1,0.5]];portConstraint=eastwest;whiteSpace=wrap;html=1;" parent="fwzKxiqjFKTYBCsEdSLr-31" vertex="1">
          <mxGeometry y="130" width="210" height="26" as="geometry" />
        </mxCell>
        <mxCell id="fwzKxiqjFKTYBCsEdSLr-39" value="+ createdAt: Date" style="text;strokeColor=none;fillColor=none;align=left;verticalAlign=top;spacingLeft=4;spacingRight=4;overflow=hidden;rotatable=0;points=[[0,0.5],[1,0.5]];portConstraint=eastwest;whiteSpace=wrap;html=1;" parent="fwzKxiqjFKTYBCsEdSLr-31" vertex="1">
          <mxGeometry y="156" width="210" height="26" as="geometry" />
        </mxCell>
        <mxCell id="fwzKxiqjFKTYBCsEdSLr-40" value="+ updatedAt: Date" style="text;strokeColor=none;fillColor=none;align=left;verticalAlign=top;spacingLeft=4;spacingRight=4;overflow=hidden;rotatable=0;points=[[0,0.5],[1,0.5]];portConstraint=eastwest;whiteSpace=wrap;html=1;" parent="fwzKxiqjFKTYBCsEdSLr-31" vertex="1">
          <mxGeometry y="182" width="210" height="26" as="geometry" />
        </mxCell>
        <mxCell id="fwzKxiqjFKTYBCsEdSLr-41" value="" style="line;strokeWidth=1;fillColor=none;align=left;verticalAlign=middle;spacingTop=-1;spacingLeft=3;spacingRight=3;rotatable=0;labelPosition=right;points=[];portConstraint=eastwest;strokeColor=inherit;" parent="fwzKxiqjFKTYBCsEdSLr-31" vertex="1">
          <mxGeometry y="208" width="210" height="8" as="geometry" />
        </mxCell>
        <mxCell id="fwzKxiqjFKTYBCsEdSLr-43" value="+ updateTotal(type): String" style="text;strokeColor=none;fillColor=none;align=left;verticalAlign=top;spacingLeft=4;spacingRight=4;overflow=hidden;rotatable=0;points=[[0,0.5],[1,0.5]];portConstraint=eastwest;whiteSpace=wrap;html=1;" parent="fwzKxiqjFKTYBCsEdSLr-31" vertex="1">
          <mxGeometry y="216" width="210" height="26" as="geometry" />
        </mxCell>
        <mxCell id="fwzKxiqjFKTYBCsEdSLr-44" value="+ reOrder(type): Boolean" style="text;strokeColor=none;fillColor=none;align=left;verticalAlign=top;spacingLeft=4;spacingRight=4;overflow=hidden;rotatable=0;points=[[0,0.5],[1,0.5]];portConstraint=eastwest;whiteSpace=wrap;html=1;" parent="fwzKxiqjFKTYBCsEdSLr-31" vertex="1">
          <mxGeometry y="242" width="210" height="26" as="geometry" />
        </mxCell>
        <mxCell id="fwzKxiqjFKTYBCsEdSLr-64" value="Item" style="swimlane;fontStyle=1;align=center;verticalAlign=top;childLayout=stackLayout;horizontal=1;startSize=26;horizontalStack=0;resizeParent=1;resizeParentMax=0;resizeLast=0;collapsible=1;marginBottom=0;whiteSpace=wrap;html=1;" parent="1" vertex="1">
          <mxGeometry x="590" y="550" width="210" height="268" as="geometry">
            <mxRectangle x="330" y="280" width="70" height="30" as="alternateBounds" />
          </mxGeometry>
        </mxCell>
        <mxCell id="fwzKxiqjFKTYBCsEdSLr-65" value="+ name: String" style="text;strokeColor=none;fillColor=none;align=left;verticalAlign=top;spacingLeft=4;spacingRight=4;overflow=hidden;rotatable=0;points=[[0,0.5],[1,0.5]];portConstraint=eastwest;whiteSpace=wrap;html=1;" parent="fwzKxiqjFKTYBCsEdSLr-64" vertex="1">
          <mxGeometry y="26" width="210" height="26" as="geometry" />
        </mxCell>
        <mxCell id="fwzKxiqjFKTYBCsEdSLr-66" value="+ order: Integer" style="text;strokeColor=none;fillColor=none;align=left;verticalAlign=top;spacingLeft=4;spacingRight=4;overflow=hidden;rotatable=0;points=[[0,0.5],[1,0.5]];portConstraint=eastwest;whiteSpace=wrap;html=1;" parent="fwzKxiqjFKTYBCsEdSLr-64" vertex="1">
          <mxGeometry y="52" width="210" height="26" as="geometry" />
        </mxCell>
        <mxCell id="fwzKxiqjFKTYBCsEdSLr-77" value="+ quantity: Integer" style="text;strokeColor=none;fillColor=none;align=left;verticalAlign=top;spacingLeft=4;spacingRight=4;overflow=hidden;rotatable=0;points=[[0,0.5],[1,0.5]];portConstraint=eastwest;whiteSpace=wrap;html=1;" parent="fwzKxiqjFKTYBCsEdSLr-64" vertex="1">
          <mxGeometry y="78" width="210" height="26" as="geometry" />
        </mxCell>
        <mxCell id="fwzKxiqjFKTYBCsEdSLr-67" value="+ price: String" style="text;strokeColor=none;fillColor=none;align=left;verticalAlign=top;spacingLeft=4;spacingRight=4;overflow=hidden;rotatable=0;points=[[0,0.5],[1,0.5]];portConstraint=eastwest;whiteSpace=wrap;html=1;" parent="fwzKxiqjFKTYBCsEdSLr-64" vertex="1">
          <mxGeometry y="104" width="210" height="26" as="geometry" />
        </mxCell>
        <mxCell id="fwzKxiqjFKTYBCsEdSLr-68" value="+ inTrash: Boolean" style="text;strokeColor=none;fillColor=none;align=left;verticalAlign=top;spacingLeft=4;spacingRight=4;overflow=hidden;rotatable=0;points=[[0,0.5],[1,0.5]];portConstraint=eastwest;whiteSpace=wrap;html=1;" parent="fwzKxiqjFKTYBCsEdSLr-64" vertex="1">
          <mxGeometry y="130" width="210" height="26" as="geometry" />
        </mxCell>
        <mxCell id="fwzKxiqjFKTYBCsEdSLr-69" value="+ createdAt: Date" style="text;strokeColor=none;fillColor=none;align=left;verticalAlign=top;spacingLeft=4;spacingRight=4;overflow=hidden;rotatable=0;points=[[0,0.5],[1,0.5]];portConstraint=eastwest;whiteSpace=wrap;html=1;" parent="fwzKxiqjFKTYBCsEdSLr-64" vertex="1">
          <mxGeometry y="156" width="210" height="26" as="geometry" />
        </mxCell>
        <mxCell id="fwzKxiqjFKTYBCsEdSLr-70" value="+ updatedAt: Date" style="text;strokeColor=none;fillColor=none;align=left;verticalAlign=top;spacingLeft=4;spacingRight=4;overflow=hidden;rotatable=0;points=[[0,0.5],[1,0.5]];portConstraint=eastwest;whiteSpace=wrap;html=1;" parent="fwzKxiqjFKTYBCsEdSLr-64" vertex="1">
          <mxGeometry y="182" width="210" height="26" as="geometry" />
        </mxCell>
        <mxCell id="fwzKxiqjFKTYBCsEdSLr-72" value="" style="line;strokeWidth=1;fillColor=none;align=left;verticalAlign=middle;spacingTop=-1;spacingLeft=3;spacingRight=3;rotatable=0;labelPosition=right;points=[];portConstraint=eastwest;strokeColor=inherit;" parent="fwzKxiqjFKTYBCsEdSLr-64" vertex="1">
          <mxGeometry y="208" width="210" height="8" as="geometry" />
        </mxCell>
        <mxCell id="fwzKxiqjFKTYBCsEdSLr-75" value="+ reOrder(type): Boolean" style="text;strokeColor=none;fillColor=none;align=left;verticalAlign=top;spacingLeft=4;spacingRight=4;overflow=hidden;rotatable=0;points=[[0,0.5],[1,0.5]];portConstraint=eastwest;whiteSpace=wrap;html=1;" parent="fwzKxiqjFKTYBCsEdSLr-64" vertex="1">
          <mxGeometry y="216" width="210" height="26" as="geometry" />
        </mxCell>
        <mxCell id="fwzKxiqjFKTYBCsEdSLr-78" value="+ move(type): Boolean" style="text;strokeColor=none;fillColor=none;align=left;verticalAlign=top;spacingLeft=4;spacingRight=4;overflow=hidden;rotatable=0;points=[[0,0.5],[1,0.5]];portConstraint=eastwest;whiteSpace=wrap;html=1;" parent="fwzKxiqjFKTYBCsEdSLr-64" vertex="1">
          <mxGeometry y="242" width="210" height="26" as="geometry" />
        </mxCell>
        <mxCell id="fwzKxiqjFKTYBCsEdSLr-79" value="Log" style="swimlane;fontStyle=1;align=center;verticalAlign=top;childLayout=stackLayout;horizontal=1;startSize=26;horizontalStack=0;resizeParent=1;resizeParentMax=0;resizeLast=0;collapsible=1;marginBottom=0;whiteSpace=wrap;html=1;" parent="1" vertex="1">
          <mxGeometry x="40" y="710" width="210" height="268" as="geometry">
            <mxRectangle x="330" y="280" width="70" height="30" as="alternateBounds" />
          </mxGeometry>
        </mxCell>
        <mxCell id="fwzKxiqjFKTYBCsEdSLr-80" value="+ action: String" style="text;strokeColor=none;fillColor=none;align=left;verticalAlign=top;spacingLeft=4;spacingRight=4;overflow=hidden;rotatable=0;points=[[0,0.5],[1,0.5]];portConstraint=eastwest;whiteSpace=wrap;html=1;" parent="fwzKxiqjFKTYBCsEdSLr-79" vertex="1">
          <mxGeometry y="26" width="210" height="26" as="geometry" />
        </mxCell>
        <mxCell id="fwzKxiqjFKTYBCsEdSLr-81" value="+ date: Date" style="text;strokeColor=none;fillColor=none;align=left;verticalAlign=top;spacingLeft=4;spacingRight=4;overflow=hidden;rotatable=0;points=[[0,0.5],[1,0.5]];portConstraint=eastwest;whiteSpace=wrap;html=1;" parent="fwzKxiqjFKTYBCsEdSLr-79" vertex="1">
          <mxGeometry y="52" width="210" height="26" as="geometry" />
        </mxCell>
        <mxCell id="fwzKxiqjFKTYBCsEdSLr-83" value="+ ip: String" style="text;strokeColor=none;fillColor=none;align=left;verticalAlign=top;spacingLeft=4;spacingRight=4;overflow=hidden;rotatable=0;points=[[0,0.5],[1,0.5]];portConstraint=eastwest;whiteSpace=wrap;html=1;" parent="fwzKxiqjFKTYBCsEdSLr-79" vertex="1">
          <mxGeometry y="78" width="210" height="26" as="geometry" />
        </mxCell>
        <mxCell id="fwzKxiqjFKTYBCsEdSLr-84" value="+ device: String" style="text;strokeColor=none;fillColor=none;align=left;verticalAlign=top;spacingLeft=4;spacingRight=4;overflow=hidden;rotatable=0;points=[[0,0.5],[1,0.5]];portConstraint=eastwest;whiteSpace=wrap;html=1;" parent="fwzKxiqjFKTYBCsEdSLr-79" vertex="1">
          <mxGeometry y="104" width="210" height="26" as="geometry" />
        </mxCell>
        <mxCell id="fwzKxiqjFKTYBCsEdSLr-82" value="+ userPerformer: User" style="text;strokeColor=none;fillColor=none;align=left;verticalAlign=top;spacingLeft=4;spacingRight=4;overflow=hidden;rotatable=0;points=[[0,0.5],[1,0.5]];portConstraint=eastwest;whiteSpace=wrap;html=1;" parent="fwzKxiqjFKTYBCsEdSLr-79" vertex="1">
          <mxGeometry y="130" width="210" height="26" as="geometry" />
        </mxCell>
        <mxCell id="UJWupGd6_paWMFlxze29-5" value="+ userPerformerEmail: String" style="text;strokeColor=none;fillColor=none;align=left;verticalAlign=top;spacingLeft=4;spacingRight=4;overflow=hidden;rotatable=0;points=[[0,0.5],[1,0.5]];portConstraint=eastwest;whiteSpace=wrap;html=1;" parent="fwzKxiqjFKTYBCsEdSLr-79" vertex="1">
          <mxGeometry y="156" width="210" height="26" as="geometry" />
        </mxCell>
        <mxCell id="UJWupGd6_paWMFlxze29-3" value="+ userAffected: User" style="text;strokeColor=none;fillColor=none;align=left;verticalAlign=top;spacingLeft=4;spacingRight=4;overflow=hidden;rotatable=0;points=[[0,0.5],[1,0.5]];portConstraint=eastwest;whiteSpace=wrap;html=1;" parent="fwzKxiqjFKTYBCsEdSLr-79" vertex="1">
          <mxGeometry y="182" width="210" height="26" as="geometry" />
        </mxCell>
        <mxCell id="GA50yoQxbBIJLHn_H_bA-3" value="+ userAffectedEmail: String" style="text;strokeColor=none;fillColor=none;align=left;verticalAlign=top;spacingLeft=4;spacingRight=4;overflow=hidden;rotatable=0;points=[[0,0.5],[1,0.5]];portConstraint=eastwest;whiteSpace=wrap;html=1;" parent="fwzKxiqjFKTYBCsEdSLr-79" vertex="1">
          <mxGeometry y="208" width="210" height="26" as="geometry" />
        </mxCell>
        <mxCell id="fwzKxiqjFKTYBCsEdSLr-95" value="+ description:&amp;nbsp;String" style="text;strokeColor=none;fillColor=none;align=left;verticalAlign=top;spacingLeft=4;spacingRight=4;overflow=hidden;rotatable=0;points=[[0,0.5],[1,0.5]];portConstraint=eastwest;whiteSpace=wrap;html=1;" parent="fwzKxiqjFKTYBCsEdSLr-79" vertex="1">
          <mxGeometry y="234" width="210" height="26" as="geometry" />
        </mxCell>
        <mxCell id="fwzKxiqjFKTYBCsEdSLr-85" value="" style="line;strokeWidth=1;fillColor=none;align=left;verticalAlign=middle;spacingTop=-1;spacingLeft=3;spacingRight=3;rotatable=0;labelPosition=right;points=[];portConstraint=eastwest;strokeColor=inherit;" parent="fwzKxiqjFKTYBCsEdSLr-79" vertex="1">
          <mxGeometry y="260" width="210" height="8" as="geometry" />
        </mxCell>
        <mxCell id="UJWupGd6_paWMFlxze29-21" style="edgeStyle=orthogonalEdgeStyle;rounded=0;orthogonalLoop=1;jettySize=auto;html=1;endArrow=none;endFill=0;" parent="1" source="fwzKxiqjFKTYBCsEdSLr-88" target="fwzKxiqjFKTYBCsEdSLr-1" edge="1">
          <mxGeometry relative="1" as="geometry" />
        </mxCell>
        <mxCell id="UJWupGd6_paWMFlxze29-22" value="0..*" style="edgeLabel;html=1;align=center;verticalAlign=middle;resizable=0;points=[];" parent="UJWupGd6_paWMFlxze29-21" vertex="1" connectable="0">
          <mxGeometry x="0.5055" relative="1" as="geometry">
            <mxPoint y="-3" as="offset" />
          </mxGeometry>
        </mxCell>
        <mxCell id="UJWupGd6_paWMFlxze29-23" value="1" style="edgeLabel;html=1;align=center;verticalAlign=middle;resizable=0;points=[];" parent="UJWupGd6_paWMFlxze29-21" vertex="1" connectable="0">
          <mxGeometry x="-0.7582" relative="1" as="geometry">
            <mxPoint x="-6" y="3" as="offset" />
          </mxGeometry>
        </mxCell>
        <mxCell id="fwzKxiqjFKTYBCsEdSLr-88" value="Role" style="swimlane;fontStyle=1;align=center;verticalAlign=top;childLayout=stackLayout;horizontal=1;startSize=26;horizontalStack=0;resizeParent=1;resizeParentMax=0;resizeLast=0;collapsible=1;marginBottom=0;whiteSpace=wrap;html=1;" parent="1" vertex="1">
          <mxGeometry x="40" y="50" width="210" height="86" as="geometry">
            <mxRectangle x="330" y="280" width="70" height="30" as="alternateBounds" />
          </mxGeometry>
        </mxCell>
        <mxCell id="fwzKxiqjFKTYBCsEdSLr-89" value="+ name: String" style="text;strokeColor=none;fillColor=none;align=left;verticalAlign=top;spacingLeft=4;spacingRight=4;overflow=hidden;rotatable=0;points=[[0,0.5],[1,0.5]];portConstraint=eastwest;whiteSpace=wrap;html=1;" parent="fwzKxiqjFKTYBCsEdSLr-88" vertex="1">
          <mxGeometry y="26" width="210" height="26" as="geometry" />
        </mxCell>
        <mxCell id="fwzKxiqjFKTYBCsEdSLr-93" value="+ description: String" style="text;strokeColor=none;fillColor=none;align=left;verticalAlign=top;spacingLeft=4;spacingRight=4;overflow=hidden;rotatable=0;points=[[0,0.5],[1,0.5]];portConstraint=eastwest;whiteSpace=wrap;html=1;" parent="fwzKxiqjFKTYBCsEdSLr-88" vertex="1">
          <mxGeometry y="52" width="210" height="26" as="geometry" />
        </mxCell>
        <mxCell id="fwzKxiqjFKTYBCsEdSLr-94" value="" style="line;strokeWidth=1;fillColor=none;align=left;verticalAlign=middle;spacingTop=-1;spacingLeft=3;spacingRight=3;rotatable=0;labelPosition=right;points=[];portConstraint=eastwest;strokeColor=inherit;" parent="fwzKxiqjFKTYBCsEdSLr-88" vertex="1">
          <mxGeometry y="78" width="210" height="8" as="geometry" />
        </mxCell>
      </root>
    </mxGraphModel>
  </diagram>
  <diagram id="xe_r8RWPgb5VxoYw5ToG" name="ERM">
    <mxGraphModel dx="3123" dy="1489" grid="1" gridSize="10" guides="1" tooltips="1" connect="1" arrows="1" fold="1" page="1" pageScale="1" pageWidth="413" pageHeight="291" background="#ffffff" math="0" shadow="0">
      <root>
        <mxCell id="0" />
        <mxCell id="1" parent="0" />
        <mxCell id="hoUAYPuTTzx3VVZblNIO-1" value="User" style="shape=table;startSize=30;container=1;collapsible=1;childLayout=tableLayout;fixedRows=1;rowLines=0;fontStyle=1;align=center;resizeLast=1;html=1;fontSize=16;" parent="1" vertex="1">
          <mxGeometry x="-519" y="-160" width="419" height="390" as="geometry" />
        </mxCell>
        <mxCell id="hoUAYPuTTzx3VVZblNIO-2" value="" style="shape=tableRow;horizontal=0;startSize=0;swimlaneHead=0;swimlaneBody=0;fillColor=none;collapsible=0;dropTarget=0;points=[[0,0.5],[1,0.5]];portConstraint=eastwest;top=0;left=0;right=0;bottom=1;fontSize=16;" parent="hoUAYPuTTzx3VVZblNIO-1" vertex="1">
          <mxGeometry y="30" width="419" height="30" as="geometry" />
        </mxCell>
        <mxCell id="hoUAYPuTTzx3VVZblNIO-3" value="PK" style="shape=partialRectangle;connectable=0;fillColor=none;top=0;left=0;bottom=0;right=0;fontStyle=1;overflow=hidden;whiteSpace=wrap;html=1;fontSize=16;" parent="hoUAYPuTTzx3VVZblNIO-2" vertex="1">
          <mxGeometry width="30" height="30" as="geometry">
            <mxRectangle width="30" height="30" as="alternateBounds" />
          </mxGeometry>
        </mxCell>
        <mxCell id="hoUAYPuTTzx3VVZblNIO-4" value="id&lt;span style=&quot;white-space: pre;&quot;&gt;&#x9;&lt;/span&gt;&lt;span style=&quot;white-space: pre;&quot;&gt;&#x9;&lt;/span&gt;&lt;span style=&quot;white-space: pre;&quot;&gt;&#x9;&lt;/span&gt;&lt;span style=&quot;white-space: pre;&quot;&gt;&#x9;&lt;/span&gt;UUID" style="shape=partialRectangle;connectable=0;fillColor=none;top=0;left=0;bottom=0;right=0;align=left;spacingLeft=6;fontStyle=5;overflow=hidden;whiteSpace=wrap;html=1;fontSize=16;" parent="hoUAYPuTTzx3VVZblNIO-2" vertex="1">
          <mxGeometry x="30" width="389" height="30" as="geometry">
            <mxRectangle width="389" height="30" as="alternateBounds" />
          </mxGeometry>
        </mxCell>
        <mxCell id="hoUAYPuTTzx3VVZblNIO-5" value="" style="shape=tableRow;horizontal=0;startSize=0;swimlaneHead=0;swimlaneBody=0;fillColor=none;collapsible=0;dropTarget=0;points=[[0,0.5],[1,0.5]];portConstraint=eastwest;top=0;left=0;right=0;bottom=0;fontSize=16;" parent="hoUAYPuTTzx3VVZblNIO-1" vertex="1">
          <mxGeometry y="60" width="419" height="30" as="geometry" />
        </mxCell>
        <mxCell id="hoUAYPuTTzx3VVZblNIO-6" value="" style="shape=partialRectangle;connectable=0;fillColor=none;top=0;left=0;bottom=0;right=0;editable=1;overflow=hidden;whiteSpace=wrap;html=1;fontSize=16;" parent="hoUAYPuTTzx3VVZblNIO-5" vertex="1">
          <mxGeometry width="30" height="30" as="geometry">
            <mxRectangle width="30" height="30" as="alternateBounds" />
          </mxGeometry>
        </mxCell>
        <mxCell id="hoUAYPuTTzx3VVZblNIO-7" value="firstName&lt;span style=&quot;&quot;&gt;&lt;span style=&quot;white-space: pre;&quot;&gt;&amp;nbsp;&amp;nbsp;&amp;nbsp;&amp;nbsp;&lt;/span&gt;&lt;/span&gt;&lt;span style=&quot;&quot;&gt;&lt;span style=&quot;white-space: pre;&quot;&gt;&amp;nbsp;&amp;nbsp;&amp;nbsp;&amp;nbsp;&lt;/span&gt;&lt;span style=&quot;&quot;&gt;&lt;span style=&quot;white-space: pre;&quot;&gt;&amp;nbsp;&amp;nbsp;&amp;nbsp;&amp;nbsp;&lt;span style=&quot;white-space: pre;&quot;&gt;&#x9;&lt;/span&gt;&lt;/span&gt;&lt;/span&gt;&lt;/span&gt;VARCHAR(255)&amp;nbsp;NOT NULL" style="shape=partialRectangle;connectable=0;fillColor=none;top=0;left=0;bottom=0;right=0;align=left;spacingLeft=6;overflow=hidden;whiteSpace=wrap;html=1;fontSize=16;" parent="hoUAYPuTTzx3VVZblNIO-5" vertex="1">
          <mxGeometry x="30" width="389" height="30" as="geometry">
            <mxRectangle width="389" height="30" as="alternateBounds" />
          </mxGeometry>
        </mxCell>
        <mxCell id="hoUAYPuTTzx3VVZblNIO-8" value="" style="shape=tableRow;horizontal=0;startSize=0;swimlaneHead=0;swimlaneBody=0;fillColor=none;collapsible=0;dropTarget=0;points=[[0,0.5],[1,0.5]];portConstraint=eastwest;top=0;left=0;right=0;bottom=0;fontSize=16;" parent="hoUAYPuTTzx3VVZblNIO-1" vertex="1">
          <mxGeometry y="90" width="419" height="30" as="geometry" />
        </mxCell>
        <mxCell id="hoUAYPuTTzx3VVZblNIO-9" value="" style="shape=partialRectangle;connectable=0;fillColor=none;top=0;left=0;bottom=0;right=0;editable=1;overflow=hidden;whiteSpace=wrap;html=1;fontSize=16;" parent="hoUAYPuTTzx3VVZblNIO-8" vertex="1">
          <mxGeometry width="30" height="30" as="geometry">
            <mxRectangle width="30" height="30" as="alternateBounds" />
          </mxGeometry>
        </mxCell>
        <mxCell id="hoUAYPuTTzx3VVZblNIO-10" value="lastName&#x9;&lt;span style=&quot;border-color: var(--border-color);&quot;&gt;&lt;span style=&quot;&quot;&gt;&amp;nbsp;&amp;nbsp;&amp;nbsp;&amp;nbsp;&lt;span style=&quot;&quot;&gt;&lt;span style=&quot;white-space: pre;&quot;&gt;&amp;nbsp;&amp;nbsp;&amp;nbsp;&amp;nbsp;&lt;/span&gt;&lt;span style=&quot;&quot;&gt;&lt;span style=&quot;white-space: pre;&quot;&gt;&amp;nbsp;&amp;nbsp;&amp;nbsp;&amp;nbsp;&lt;span style=&quot;white-space: pre;&quot;&gt;&#x9;&lt;/span&gt;&lt;/span&gt;&lt;/span&gt;&lt;/span&gt;&lt;/span&gt;&lt;/span&gt;VARCHAR(255)&amp;nbsp;NOT NULL" style="shape=partialRectangle;connectable=0;fillColor=none;top=0;left=0;bottom=0;right=0;align=left;spacingLeft=6;overflow=hidden;whiteSpace=wrap;html=1;fontSize=16;" parent="hoUAYPuTTzx3VVZblNIO-8" vertex="1">
          <mxGeometry x="30" width="389" height="30" as="geometry">
            <mxRectangle width="389" height="30" as="alternateBounds" />
          </mxGeometry>
        </mxCell>
        <mxCell id="hoUAYPuTTzx3VVZblNIO-11" value="" style="shape=tableRow;horizontal=0;startSize=0;swimlaneHead=0;swimlaneBody=0;fillColor=none;collapsible=0;dropTarget=0;points=[[0,0.5],[1,0.5]];portConstraint=eastwest;top=0;left=0;right=0;bottom=0;fontSize=16;" parent="hoUAYPuTTzx3VVZblNIO-1" vertex="1">
          <mxGeometry y="120" width="419" height="30" as="geometry" />
        </mxCell>
        <mxCell id="hoUAYPuTTzx3VVZblNIO-12" value="" style="shape=partialRectangle;connectable=0;fillColor=none;top=0;left=0;bottom=0;right=0;editable=1;overflow=hidden;whiteSpace=wrap;html=1;fontSize=16;" parent="hoUAYPuTTzx3VVZblNIO-11" vertex="1">
          <mxGeometry width="30" height="30" as="geometry">
            <mxRectangle width="30" height="30" as="alternateBounds" />
          </mxGeometry>
        </mxCell>
        <mxCell id="hoUAYPuTTzx3VVZblNIO-13" value="email&lt;span style=&quot;&quot;&gt;&lt;span style=&quot;white-space: pre;&quot;&gt;&amp;nbsp;&amp;nbsp;&amp;nbsp;&amp;nbsp;&lt;/span&gt;&lt;/span&gt;&lt;span style=&quot;&quot;&gt;&lt;span style=&quot;white-space: pre;&quot;&gt;&amp;nbsp;&amp;nbsp;&amp;nbsp;&amp;nbsp;&lt;/span&gt;&lt;span style=&quot;&quot;&gt;&lt;span style=&quot;white-space: pre;&quot;&gt;&amp;nbsp;&amp;nbsp;&amp;nbsp;&amp;nbsp;&lt;span style=&quot;white-space: pre;&quot;&gt;&#x9;&lt;/span&gt;&lt;span style=&quot;white-space: pre;&quot;&gt;&#x9;&lt;/span&gt;&lt;/span&gt;&lt;/span&gt;&lt;/span&gt;VARCHAR(255)&amp;nbsp;NOT NULL" style="shape=partialRectangle;connectable=0;fillColor=none;top=0;left=0;bottom=0;right=0;align=left;spacingLeft=6;overflow=hidden;whiteSpace=wrap;html=1;fontSize=16;" parent="hoUAYPuTTzx3VVZblNIO-11" vertex="1">
          <mxGeometry x="30" width="389" height="30" as="geometry">
            <mxRectangle width="389" height="30" as="alternateBounds" />
          </mxGeometry>
        </mxCell>
        <mxCell id="hoUAYPuTTzx3VVZblNIO-27" value="" style="shape=tableRow;horizontal=0;startSize=0;swimlaneHead=0;swimlaneBody=0;fillColor=none;collapsible=0;dropTarget=0;points=[[0,0.5],[1,0.5]];portConstraint=eastwest;top=0;left=0;right=0;bottom=0;fontSize=16;" parent="hoUAYPuTTzx3VVZblNIO-1" vertex="1">
          <mxGeometry y="150" width="419" height="30" as="geometry" />
        </mxCell>
        <mxCell id="hoUAYPuTTzx3VVZblNIO-28" value="" style="shape=partialRectangle;connectable=0;fillColor=none;top=0;left=0;bottom=0;right=0;editable=1;overflow=hidden;whiteSpace=wrap;html=1;fontSize=16;" parent="hoUAYPuTTzx3VVZblNIO-27" vertex="1">
          <mxGeometry width="30" height="30" as="geometry">
            <mxRectangle width="30" height="30" as="alternateBounds" />
          </mxGeometry>
        </mxCell>
        <mxCell id="hoUAYPuTTzx3VVZblNIO-29" value="password&amp;nbsp;&lt;span style=&quot;border-color: var(--border-color);&quot;&gt;&lt;span style=&quot;&quot;&gt;&amp;nbsp;&amp;nbsp;&amp;nbsp;&amp;nbsp;&lt;span style=&quot;&quot;&gt;&lt;span style=&quot;white-space: pre;&quot;&gt;&amp;nbsp;&amp;nbsp;&amp;nbsp;&amp;nbsp;&lt;/span&gt;&lt;span style=&quot;&quot;&gt;&lt;span style=&quot;white-space: pre;&quot;&gt;&amp;nbsp;&amp;nbsp;&amp;nbsp;&amp;nbsp;&lt;span style=&quot;white-space: pre;&quot;&gt;&#x9;&lt;/span&gt;&lt;/span&gt;&lt;/span&gt;&lt;/span&gt;&lt;/span&gt;&lt;/span&gt;VARCHAR(255)&amp;nbsp;NOT NULL" style="shape=partialRectangle;connectable=0;fillColor=none;top=0;left=0;bottom=0;right=0;align=left;spacingLeft=6;overflow=hidden;whiteSpace=wrap;html=1;fontSize=16;" parent="hoUAYPuTTzx3VVZblNIO-27" vertex="1">
          <mxGeometry x="30" width="389" height="30" as="geometry">
            <mxRectangle width="389" height="30" as="alternateBounds" />
          </mxGeometry>
        </mxCell>
        <mxCell id="hoUAYPuTTzx3VVZblNIO-30" value="" style="shape=tableRow;horizontal=0;startSize=0;swimlaneHead=0;swimlaneBody=0;fillColor=none;collapsible=0;dropTarget=0;points=[[0,0.5],[1,0.5]];portConstraint=eastwest;top=0;left=0;right=0;bottom=0;fontSize=16;" parent="hoUAYPuTTzx3VVZblNIO-1" vertex="1">
          <mxGeometry y="180" width="419" height="30" as="geometry" />
        </mxCell>
        <mxCell id="hoUAYPuTTzx3VVZblNIO-31" value="" style="shape=partialRectangle;connectable=0;fillColor=none;top=0;left=0;bottom=0;right=0;editable=1;overflow=hidden;whiteSpace=wrap;html=1;fontSize=16;" parent="hoUAYPuTTzx3VVZblNIO-30" vertex="1">
          <mxGeometry width="30" height="30" as="geometry">
            <mxRectangle width="30" height="30" as="alternateBounds" />
          </mxGeometry>
        </mxCell>
        <mxCell id="hoUAYPuTTzx3VVZblNIO-32" value="defaultCurrency&lt;span style=&quot;&quot;&gt;&lt;span style=&quot;white-space: pre;&quot;&gt;&amp;nbsp;&amp;nbsp;&amp;nbsp;&amp;nbsp;&lt;span style=&quot;white-space: pre;&quot;&gt;&#x9;&lt;/span&gt;&lt;/span&gt;&lt;/span&gt;VARCHAR(3)&amp;nbsp;NOT NULL" style="shape=partialRectangle;connectable=0;fillColor=none;top=0;left=0;bottom=0;right=0;align=left;spacingLeft=6;overflow=hidden;whiteSpace=wrap;html=1;fontSize=16;" parent="hoUAYPuTTzx3VVZblNIO-30" vertex="1">
          <mxGeometry x="30" width="389" height="30" as="geometry">
            <mxRectangle width="389" height="30" as="alternateBounds" />
          </mxGeometry>
        </mxCell>
        <mxCell id="hoUAYPuTTzx3VVZblNIO-33" value="" style="shape=tableRow;horizontal=0;startSize=0;swimlaneHead=0;swimlaneBody=0;fillColor=none;collapsible=0;dropTarget=0;points=[[0,0.5],[1,0.5]];portConstraint=eastwest;top=0;left=0;right=0;bottom=0;fontSize=16;" parent="hoUAYPuTTzx3VVZblNIO-1" vertex="1">
          <mxGeometry y="210" width="419" height="30" as="geometry" />
        </mxCell>
        <mxCell id="hoUAYPuTTzx3VVZblNIO-34" value="" style="shape=partialRectangle;connectable=0;fillColor=none;top=0;left=0;bottom=0;right=0;editable=1;overflow=hidden;whiteSpace=wrap;html=1;fontSize=16;" parent="hoUAYPuTTzx3VVZblNIO-33" vertex="1">
          <mxGeometry width="30" height="30" as="geometry">
            <mxRectangle width="30" height="30" as="alternateBounds" />
          </mxGeometry>
        </mxCell>
        <mxCell id="hoUAYPuTTzx3VVZblNIO-35" value="preferredLocale&lt;span style=&quot;&quot;&gt;&lt;span style=&quot;white-space: pre;&quot;&gt;&amp;nbsp;&amp;nbsp;&amp;nbsp;&amp;nbsp;&lt;span style=&quot;white-space: pre;&quot;&gt;&#x9;&lt;/span&gt;&lt;/span&gt;&lt;/span&gt;VARCHAR(255)&amp;nbsp;NOT NULL" style="shape=partialRectangle;connectable=0;fillColor=none;top=0;left=0;bottom=0;right=0;align=left;spacingLeft=6;overflow=hidden;whiteSpace=wrap;html=1;fontSize=16;" parent="hoUAYPuTTzx3VVZblNIO-33" vertex="1">
          <mxGeometry x="30" width="389" height="30" as="geometry">
            <mxRectangle width="389" height="30" as="alternateBounds" />
          </mxGeometry>
        </mxCell>
        <mxCell id="hoUAYPuTTzx3VVZblNIO-36" value="" style="shape=tableRow;horizontal=0;startSize=0;swimlaneHead=0;swimlaneBody=0;fillColor=none;collapsible=0;dropTarget=0;points=[[0,0.5],[1,0.5]];portConstraint=eastwest;top=0;left=0;right=0;bottom=0;fontSize=16;" parent="hoUAYPuTTzx3VVZblNIO-1" vertex="1">
          <mxGeometry y="240" width="419" height="30" as="geometry" />
        </mxCell>
        <mxCell id="hoUAYPuTTzx3VVZblNIO-37" value="" style="shape=partialRectangle;connectable=0;fillColor=none;top=0;left=0;bottom=0;right=0;editable=1;overflow=hidden;whiteSpace=wrap;html=1;fontSize=16;" parent="hoUAYPuTTzx3VVZblNIO-36" vertex="1">
          <mxGeometry width="30" height="30" as="geometry">
            <mxRectangle width="30" height="30" as="alternateBounds" />
          </mxGeometry>
        </mxCell>
        <mxCell id="hoUAYPuTTzx3VVZblNIO-38" value="isBlocked&lt;span style=&quot;white-space: pre;&quot;&gt;&#x9;&lt;/span&gt;&lt;span style=&quot;white-space: pre;&quot;&gt;&#x9;&lt;/span&gt;&lt;span style=&quot;white-space: pre;&quot;&gt;&#x9;&lt;/span&gt;BOOLEAN" style="shape=partialRectangle;connectable=0;fillColor=none;top=0;left=0;bottom=0;right=0;align=left;spacingLeft=6;overflow=hidden;whiteSpace=wrap;html=1;fontSize=16;" parent="hoUAYPuTTzx3VVZblNIO-36" vertex="1">
          <mxGeometry x="30" width="389" height="30" as="geometry">
            <mxRectangle width="389" height="30" as="alternateBounds" />
          </mxGeometry>
        </mxCell>
        <mxCell id="hoUAYPuTTzx3VVZblNIO-39" value="" style="shape=tableRow;horizontal=0;startSize=0;swimlaneHead=0;swimlaneBody=0;fillColor=none;collapsible=0;dropTarget=0;points=[[0,0.5],[1,0.5]];portConstraint=eastwest;top=0;left=0;right=0;bottom=0;fontSize=16;" parent="hoUAYPuTTzx3VVZblNIO-1" vertex="1">
          <mxGeometry y="270" width="419" height="30" as="geometry" />
        </mxCell>
        <mxCell id="hoUAYPuTTzx3VVZblNIO-40" value="" style="shape=partialRectangle;connectable=0;fillColor=none;top=0;left=0;bottom=0;right=0;editable=1;overflow=hidden;whiteSpace=wrap;html=1;fontSize=16;" parent="hoUAYPuTTzx3VVZblNIO-39" vertex="1">
          <mxGeometry width="30" height="30" as="geometry">
            <mxRectangle width="30" height="30" as="alternateBounds" />
          </mxGeometry>
        </mxCell>
        <mxCell id="hoUAYPuTTzx3VVZblNIO-41" value="createdAt&lt;span style=&quot;white-space: pre;&quot;&gt;&#x9;&lt;/span&gt;&lt;span style=&quot;white-space: pre;&quot;&gt;&#x9;&lt;/span&gt;&lt;span style=&quot;white-space: pre;&quot;&gt;&#x9;&lt;/span&gt;TIMESTAMPTZ&amp;nbsp; NOT NULL" style="shape=partialRectangle;connectable=0;fillColor=none;top=0;left=0;bottom=0;right=0;align=left;spacingLeft=6;overflow=hidden;whiteSpace=wrap;html=1;fontSize=16;" parent="hoUAYPuTTzx3VVZblNIO-39" vertex="1">
          <mxGeometry x="30" width="389" height="30" as="geometry">
            <mxRectangle width="389" height="30" as="alternateBounds" />
          </mxGeometry>
        </mxCell>
        <mxCell id="hoUAYPuTTzx3VVZblNIO-42" value="" style="shape=tableRow;horizontal=0;startSize=0;swimlaneHead=0;swimlaneBody=0;fillColor=none;collapsible=0;dropTarget=0;points=[[0,0.5],[1,0.5]];portConstraint=eastwest;top=0;left=0;right=0;bottom=0;fontSize=16;" parent="hoUAYPuTTzx3VVZblNIO-1" vertex="1">
          <mxGeometry y="300" width="419" height="30" as="geometry" />
        </mxCell>
        <mxCell id="hoUAYPuTTzx3VVZblNIO-43" value="" style="shape=partialRectangle;connectable=0;fillColor=none;top=0;left=0;bottom=0;right=0;editable=1;overflow=hidden;whiteSpace=wrap;html=1;fontSize=16;" parent="hoUAYPuTTzx3VVZblNIO-42" vertex="1">
          <mxGeometry width="30" height="30" as="geometry">
            <mxRectangle width="30" height="30" as="alternateBounds" />
          </mxGeometry>
        </mxCell>
        <mxCell id="hoUAYPuTTzx3VVZblNIO-44" value="updatedAt&lt;span style=&quot;&quot;&gt;&lt;span style=&quot;white-space: pre;&quot;&gt;&amp;nbsp;&amp;nbsp;&amp;nbsp;&amp;nbsp;&lt;/span&gt;&lt;/span&gt;&lt;span style=&quot;&quot;&gt;&lt;span style=&quot;white-space: pre;&quot;&gt;&amp;nbsp;&amp;nbsp;&amp;nbsp;&amp;nbsp;&lt;span style=&quot;white-space: pre;&quot;&gt;&#x9;&lt;/span&gt;&lt;/span&gt;&lt;/span&gt;TIMESTAMPTZ&amp;nbsp; NOT NULL" style="shape=partialRectangle;connectable=0;fillColor=none;top=0;left=0;bottom=0;right=0;align=left;spacingLeft=6;overflow=hidden;whiteSpace=wrap;html=1;fontSize=16;" parent="hoUAYPuTTzx3VVZblNIO-42" vertex="1">
          <mxGeometry x="30" width="389" height="30" as="geometry">
            <mxRectangle width="389" height="30" as="alternateBounds" />
          </mxGeometry>
        </mxCell>
        <mxCell id="hoUAYPuTTzx3VVZblNIO-45" value="" style="shape=tableRow;horizontal=0;startSize=0;swimlaneHead=0;swimlaneBody=0;fillColor=none;collapsible=0;dropTarget=0;points=[[0,0.5],[1,0.5]];portConstraint=eastwest;top=0;left=0;right=0;bottom=0;fontSize=16;strokeWidth=1;swimlaneLine=1;separatorColor=#000000;" parent="hoUAYPuTTzx3VVZblNIO-1" vertex="1">
          <mxGeometry y="330" width="419" height="30" as="geometry" />
        </mxCell>
        <mxCell id="hoUAYPuTTzx3VVZblNIO-46" value="" style="shape=partialRectangle;connectable=0;fillColor=none;top=0;left=0;bottom=0;right=0;editable=1;overflow=hidden;whiteSpace=wrap;html=1;fontSize=16;" parent="hoUAYPuTTzx3VVZblNIO-45" vertex="1">
          <mxGeometry width="30" height="30" as="geometry">
            <mxRectangle width="30" height="30" as="alternateBounds" />
          </mxGeometry>
        </mxCell>
        <mxCell id="hoUAYPuTTzx3VVZblNIO-47" value="roleId&lt;span style=&quot;white-space: pre;&quot;&gt;&#x9;&lt;/span&gt;&lt;span style=&quot;white-space: pre;&quot;&gt;&#x9;&lt;/span&gt;&lt;span style=&quot;white-space: pre;&quot;&gt;&#x9;&lt;/span&gt;VARCHAR(255) NOT NULL&amp;nbsp;" style="shape=partialRectangle;connectable=0;fillColor=none;top=0;left=0;bottom=0;right=0;align=left;spacingLeft=6;overflow=hidden;whiteSpace=wrap;html=1;fontSize=16;" parent="hoUAYPuTTzx3VVZblNIO-45" vertex="1">
          <mxGeometry x="30" width="389" height="30" as="geometry">
            <mxRectangle width="389" height="30" as="alternateBounds" />
          </mxGeometry>
        </mxCell>
        <mxCell id="c6OgAKPzxv5L_kpb_E-i-87" value="" style="shape=tableRow;horizontal=0;startSize=0;swimlaneHead=0;swimlaneBody=0;fillColor=none;collapsible=0;dropTarget=0;points=[[0,0.5],[1,0.5]];portConstraint=eastwest;top=1;left=0;right=0;bottom=0;fontSize=16;swimlaneFillColor=none;swimlaneLine=1;separatorColor=#000000;" vertex="1" parent="hoUAYPuTTzx3VVZblNIO-1">
          <mxGeometry y="360" width="419" height="30" as="geometry" />
        </mxCell>
        <mxCell id="c6OgAKPzxv5L_kpb_E-i-88" value="" style="shape=partialRectangle;connectable=0;fillColor=none;top=0;left=0;bottom=0;right=0;editable=1;overflow=hidden;whiteSpace=wrap;html=1;fontSize=16;" vertex="1" parent="c6OgAKPzxv5L_kpb_E-i-87">
          <mxGeometry width="30" height="30" as="geometry">
            <mxRectangle width="30" height="30" as="alternateBounds" />
          </mxGeometry>
        </mxCell>
        <mxCell id="c6OgAKPzxv5L_kpb_E-i-89" value="USER_ROLE_FK(roleId)" style="shape=partialRectangle;connectable=0;fillColor=none;top=0;left=0;bottom=0;right=0;align=left;spacingLeft=6;overflow=hidden;whiteSpace=wrap;html=1;fontSize=16;" vertex="1" parent="c6OgAKPzxv5L_kpb_E-i-87">
          <mxGeometry x="30" width="389" height="30" as="geometry">
            <mxRectangle width="389" height="30" as="alternateBounds" />
          </mxGeometry>
        </mxCell>
        <mxCell id="c6OgAKPzxv5L_kpb_E-i-1" value="Role" style="shape=table;startSize=30;container=1;collapsible=1;childLayout=tableLayout;fixedRows=1;rowLines=0;fontStyle=1;align=center;resizeLast=1;html=1;fontSize=16;" vertex="1" parent="1">
          <mxGeometry x="40" y="-160" width="410" height="180" as="geometry" />
        </mxCell>
        <mxCell id="c6OgAKPzxv5L_kpb_E-i-2" value="" style="shape=tableRow;horizontal=0;startSize=0;swimlaneHead=0;swimlaneBody=0;fillColor=none;collapsible=0;dropTarget=0;points=[[0,0.5],[1,0.5]];portConstraint=eastwest;top=0;left=0;right=0;bottom=1;fontSize=16;" vertex="1" parent="c6OgAKPzxv5L_kpb_E-i-1">
          <mxGeometry y="30" width="410" height="30" as="geometry" />
        </mxCell>
        <mxCell id="c6OgAKPzxv5L_kpb_E-i-3" value="PK" style="shape=partialRectangle;connectable=0;fillColor=none;top=0;left=0;bottom=0;right=0;fontStyle=1;overflow=hidden;whiteSpace=wrap;html=1;fontSize=16;" vertex="1" parent="c6OgAKPzxv5L_kpb_E-i-2">
          <mxGeometry width="30" height="30" as="geometry">
            <mxRectangle width="30" height="30" as="alternateBounds" />
          </mxGeometry>
        </mxCell>
        <mxCell id="c6OgAKPzxv5L_kpb_E-i-4" value="id&lt;span style=&quot;white-space: pre;&quot;&gt;&#x9;&lt;/span&gt;&lt;span style=&quot;white-space: pre;&quot;&gt;&#x9;&lt;/span&gt;&lt;span style=&quot;white-space: pre;&quot;&gt;&#x9;&lt;/span&gt;&lt;span style=&quot;white-space: pre;&quot;&gt;&#x9;&lt;/span&gt;VARCHAR(255)" style="shape=partialRectangle;connectable=0;fillColor=none;top=0;left=0;bottom=0;right=0;align=left;spacingLeft=6;fontStyle=5;overflow=hidden;whiteSpace=wrap;html=1;fontSize=16;" vertex="1" parent="c6OgAKPzxv5L_kpb_E-i-2">
          <mxGeometry x="30" width="380" height="30" as="geometry">
            <mxRectangle width="380" height="30" as="alternateBounds" />
          </mxGeometry>
        </mxCell>
        <mxCell id="c6OgAKPzxv5L_kpb_E-i-5" value="" style="shape=tableRow;horizontal=0;startSize=0;swimlaneHead=0;swimlaneBody=0;fillColor=none;collapsible=0;dropTarget=0;points=[[0,0.5],[1,0.5]];portConstraint=eastwest;top=0;left=0;right=0;bottom=0;fontSize=16;" vertex="1" parent="c6OgAKPzxv5L_kpb_E-i-1">
          <mxGeometry y="60" width="410" height="30" as="geometry" />
        </mxCell>
        <mxCell id="c6OgAKPzxv5L_kpb_E-i-6" value="" style="shape=partialRectangle;connectable=0;fillColor=none;top=0;left=0;bottom=0;right=0;editable=1;overflow=hidden;whiteSpace=wrap;html=1;fontSize=16;" vertex="1" parent="c6OgAKPzxv5L_kpb_E-i-5">
          <mxGeometry width="30" height="30" as="geometry">
            <mxRectangle width="30" height="30" as="alternateBounds" />
          </mxGeometry>
        </mxCell>
        <mxCell id="c6OgAKPzxv5L_kpb_E-i-7" value="name&lt;span style=&quot;&quot;&gt;&lt;span style=&quot;white-space: pre;&quot;&gt;&amp;nbsp;&amp;nbsp;&amp;nbsp;&amp;nbsp;&lt;/span&gt;&lt;/span&gt;&lt;span style=&quot;&quot;&gt;&lt;span style=&quot;white-space: pre;&quot;&gt;&amp;nbsp;&amp;nbsp;&amp;nbsp;&amp;nbsp;&lt;/span&gt;&lt;span style=&quot;&quot;&gt;&lt;span style=&quot;white-space: pre;&quot;&gt;&amp;nbsp;&amp;nbsp;&amp;nbsp;&amp;nbsp;&lt;span style=&quot;white-space: pre;&quot;&gt;&#x9;&lt;/span&gt;&lt;span style=&quot;white-space: pre;&quot;&gt;&#x9;&lt;/span&gt;&lt;/span&gt;&lt;/span&gt;&lt;/span&gt;VARCHAR(255)&amp;nbsp;NOT NULL" style="shape=partialRectangle;connectable=0;fillColor=none;top=0;left=0;bottom=0;right=0;align=left;spacingLeft=6;overflow=hidden;whiteSpace=wrap;html=1;fontSize=16;" vertex="1" parent="c6OgAKPzxv5L_kpb_E-i-5">
          <mxGeometry x="30" width="380" height="30" as="geometry">
            <mxRectangle width="380" height="30" as="alternateBounds" />
          </mxGeometry>
        </mxCell>
        <mxCell id="c6OgAKPzxv5L_kpb_E-i-8" value="" style="shape=tableRow;horizontal=0;startSize=0;swimlaneHead=0;swimlaneBody=0;fillColor=none;collapsible=0;dropTarget=0;points=[[0,0.5],[1,0.5]];portConstraint=eastwest;top=0;left=0;right=0;bottom=0;fontSize=16;" vertex="1" parent="c6OgAKPzxv5L_kpb_E-i-1">
          <mxGeometry y="90" width="410" height="30" as="geometry" />
        </mxCell>
        <mxCell id="c6OgAKPzxv5L_kpb_E-i-9" value="" style="shape=partialRectangle;connectable=0;fillColor=none;top=0;left=0;bottom=0;right=0;editable=1;overflow=hidden;whiteSpace=wrap;html=1;fontSize=16;" vertex="1" parent="c6OgAKPzxv5L_kpb_E-i-8">
          <mxGeometry width="30" height="30" as="geometry">
            <mxRectangle width="30" height="30" as="alternateBounds" />
          </mxGeometry>
        </mxCell>
        <mxCell id="c6OgAKPzxv5L_kpb_E-i-10" value="description&amp;nbsp;&lt;span style=&quot;border-color: var(--border-color);&quot;&gt;&lt;span style=&quot;&quot;&gt;&amp;nbsp;&amp;nbsp;&amp;nbsp;&amp;nbsp;&lt;span style=&quot;&quot;&gt;&lt;span style=&quot;white-space: pre;&quot;&gt;&amp;nbsp;&amp;nbsp;&amp;nbsp;&amp;nbsp;&lt;/span&gt;&lt;span style=&quot;&quot;&gt;&lt;span style=&quot;white-space: pre;&quot;&gt;&amp;nbsp;&amp;nbsp;&amp;nbsp;&amp;nbsp;&lt;span style=&quot;white-space: pre;&quot;&gt;&#x9;&lt;/span&gt;&lt;/span&gt;&lt;/span&gt;&lt;/span&gt;&lt;/span&gt;&lt;/span&gt;VARCHAR(255)&amp;nbsp;NOT NULL" style="shape=partialRectangle;connectable=0;fillColor=none;top=0;left=0;bottom=0;right=0;align=left;spacingLeft=6;overflow=hidden;whiteSpace=wrap;html=1;fontSize=16;" vertex="1" parent="c6OgAKPzxv5L_kpb_E-i-8">
          <mxGeometry x="30" width="380" height="30" as="geometry">
            <mxRectangle width="380" height="30" as="alternateBounds" />
          </mxGeometry>
        </mxCell>
        <mxCell id="c6OgAKPzxv5L_kpb_E-i-26" value="" style="shape=tableRow;horizontal=0;startSize=0;swimlaneHead=0;swimlaneBody=0;fillColor=none;collapsible=0;dropTarget=0;points=[[0,0.5],[1,0.5]];portConstraint=eastwest;top=0;left=0;right=0;bottom=0;fontSize=16;" vertex="1" parent="c6OgAKPzxv5L_kpb_E-i-1">
          <mxGeometry y="120" width="410" height="30" as="geometry" />
        </mxCell>
        <mxCell id="c6OgAKPzxv5L_kpb_E-i-27" value="" style="shape=partialRectangle;connectable=0;fillColor=none;top=0;left=0;bottom=0;right=0;editable=1;overflow=hidden;whiteSpace=wrap;html=1;fontSize=16;" vertex="1" parent="c6OgAKPzxv5L_kpb_E-i-26">
          <mxGeometry width="30" height="30" as="geometry">
            <mxRectangle width="30" height="30" as="alternateBounds" />
          </mxGeometry>
        </mxCell>
        <mxCell id="c6OgAKPzxv5L_kpb_E-i-28" value="createdAt&lt;span style=&quot;white-space: pre;&quot;&gt;&#x9;&lt;/span&gt;&lt;span style=&quot;white-space: pre;&quot;&gt;&#x9;&lt;/span&gt;&lt;span style=&quot;white-space: pre;&quot;&gt;&#x9;&lt;/span&gt;TIMESTAMPTZ&amp;nbsp; NOT NULL" style="shape=partialRectangle;connectable=0;fillColor=none;top=0;left=0;bottom=0;right=0;align=left;spacingLeft=6;overflow=hidden;whiteSpace=wrap;html=1;fontSize=16;" vertex="1" parent="c6OgAKPzxv5L_kpb_E-i-26">
          <mxGeometry x="30" width="380" height="30" as="geometry">
            <mxRectangle width="380" height="30" as="alternateBounds" />
          </mxGeometry>
        </mxCell>
        <mxCell id="c6OgAKPzxv5L_kpb_E-i-29" value="" style="shape=tableRow;horizontal=0;startSize=0;swimlaneHead=0;swimlaneBody=0;fillColor=none;collapsible=0;dropTarget=0;points=[[0,0.5],[1,0.5]];portConstraint=eastwest;top=0;left=0;right=0;bottom=0;fontSize=16;" vertex="1" parent="c6OgAKPzxv5L_kpb_E-i-1">
          <mxGeometry y="150" width="410" height="30" as="geometry" />
        </mxCell>
        <mxCell id="c6OgAKPzxv5L_kpb_E-i-30" value="" style="shape=partialRectangle;connectable=0;fillColor=none;top=0;left=0;bottom=0;right=0;editable=1;overflow=hidden;whiteSpace=wrap;html=1;fontSize=16;" vertex="1" parent="c6OgAKPzxv5L_kpb_E-i-29">
          <mxGeometry width="30" height="30" as="geometry">
            <mxRectangle width="30" height="30" as="alternateBounds" />
          </mxGeometry>
        </mxCell>
        <mxCell id="c6OgAKPzxv5L_kpb_E-i-31" value="updatedAt&lt;span style=&quot;&quot;&gt;&lt;span style=&quot;white-space: pre;&quot;&gt;&amp;nbsp;&amp;nbsp;&amp;nbsp;&amp;nbsp;&lt;/span&gt;&lt;/span&gt;&lt;span style=&quot;&quot;&gt;&lt;span style=&quot;white-space: pre;&quot;&gt;&amp;nbsp;&amp;nbsp;&amp;nbsp;&amp;nbsp;&lt;span style=&quot;white-space: pre;&quot;&gt;&#x9;&lt;/span&gt;&lt;/span&gt;&lt;/span&gt;TIMESTAMPTZ&amp;nbsp; NOT NULL" style="shape=partialRectangle;connectable=0;fillColor=none;top=0;left=0;bottom=0;right=0;align=left;spacingLeft=6;overflow=hidden;whiteSpace=wrap;html=1;fontSize=16;" vertex="1" parent="c6OgAKPzxv5L_kpb_E-i-29">
          <mxGeometry x="30" width="380" height="30" as="geometry">
            <mxRectangle width="380" height="30" as="alternateBounds" />
          </mxGeometry>
        </mxCell>
        <mxCell id="c6OgAKPzxv5L_kpb_E-i-52" style="edgeStyle=none;curved=1;rounded=0;orthogonalLoop=1;jettySize=auto;html=1;entryX=1;entryY=0.5;entryDx=0;entryDy=0;fontSize=12;startSize=8;endSize=8;endArrow=ERmany;endFill=0;" edge="1" parent="1" source="c6OgAKPzxv5L_kpb_E-i-5" target="hoUAYPuTTzx3VVZblNIO-5">
          <mxGeometry relative="1" as="geometry" />
        </mxCell>
        <mxCell id="c6OgAKPzxv5L_kpb_E-i-53" value="Log" style="shape=table;startSize=30;container=1;collapsible=1;childLayout=tableLayout;fixedRows=1;rowLines=0;fontStyle=1;align=center;resizeLast=1;html=1;fontSize=16;" vertex="1" parent="1">
          <mxGeometry x="-1120" y="-180" width="441" height="410" as="geometry" />
        </mxCell>
        <mxCell id="c6OgAKPzxv5L_kpb_E-i-54" value="" style="shape=tableRow;horizontal=0;startSize=0;swimlaneHead=0;swimlaneBody=0;fillColor=none;collapsible=0;dropTarget=0;points=[[0,0.5],[1,0.5]];portConstraint=eastwest;top=0;left=0;right=0;bottom=1;fontSize=16;" vertex="1" parent="c6OgAKPzxv5L_kpb_E-i-53">
          <mxGeometry y="30" width="441" height="30" as="geometry" />
        </mxCell>
        <mxCell id="c6OgAKPzxv5L_kpb_E-i-55" value="PK" style="shape=partialRectangle;connectable=0;fillColor=none;top=0;left=0;bottom=0;right=0;fontStyle=1;overflow=hidden;whiteSpace=wrap;html=1;fontSize=16;" vertex="1" parent="c6OgAKPzxv5L_kpb_E-i-54">
          <mxGeometry width="30" height="30" as="geometry">
            <mxRectangle width="30" height="30" as="alternateBounds" />
          </mxGeometry>
        </mxCell>
        <mxCell id="c6OgAKPzxv5L_kpb_E-i-56" value="id&lt;span style=&quot;white-space: pre;&quot;&gt;&#x9;&lt;/span&gt;&lt;span style=&quot;white-space: pre;&quot;&gt;&#x9;&lt;/span&gt;&lt;span style=&quot;white-space: pre;&quot;&gt;&#x9;&lt;/span&gt;&lt;span style=&quot;white-space: pre;&quot;&gt;&#x9;&lt;span style=&quot;white-space: pre;&quot;&gt;&#x9;&lt;/span&gt;&lt;/span&gt;UUID" style="shape=partialRectangle;connectable=0;fillColor=none;top=0;left=0;bottom=0;right=0;align=left;spacingLeft=6;fontStyle=5;overflow=hidden;whiteSpace=wrap;html=1;fontSize=16;" vertex="1" parent="c6OgAKPzxv5L_kpb_E-i-54">
          <mxGeometry x="30" width="411" height="30" as="geometry">
            <mxRectangle width="411" height="30" as="alternateBounds" />
          </mxGeometry>
        </mxCell>
        <mxCell id="c6OgAKPzxv5L_kpb_E-i-57" value="" style="shape=tableRow;horizontal=0;startSize=0;swimlaneHead=0;swimlaneBody=0;fillColor=none;collapsible=0;dropTarget=0;points=[[0,0.5],[1,0.5]];portConstraint=eastwest;top=0;left=0;right=0;bottom=0;fontSize=16;" vertex="1" parent="c6OgAKPzxv5L_kpb_E-i-53">
          <mxGeometry y="60" width="441" height="30" as="geometry" />
        </mxCell>
        <mxCell id="c6OgAKPzxv5L_kpb_E-i-58" value="" style="shape=partialRectangle;connectable=0;fillColor=none;top=0;left=0;bottom=0;right=0;editable=1;overflow=hidden;whiteSpace=wrap;html=1;fontSize=16;" vertex="1" parent="c6OgAKPzxv5L_kpb_E-i-57">
          <mxGeometry width="30" height="30" as="geometry">
            <mxRectangle width="30" height="30" as="alternateBounds" />
          </mxGeometry>
        </mxCell>
        <mxCell id="c6OgAKPzxv5L_kpb_E-i-59" value="action&lt;span style=&quot;&quot;&gt;&lt;span style=&quot;white-space: pre;&quot;&gt;&amp;nbsp;&amp;nbsp;&amp;nbsp;&amp;nbsp;&lt;/span&gt;&lt;/span&gt;&lt;span style=&quot;&quot;&gt;&lt;span style=&quot;white-space: pre;&quot;&gt;&amp;nbsp;&amp;nbsp;&amp;nbsp;&amp;nbsp;&lt;/span&gt;&lt;span style=&quot;&quot;&gt;&lt;span style=&quot;white-space: pre;&quot;&gt;&amp;nbsp;&amp;nbsp;&amp;nbsp;&amp;nbsp;&lt;span style=&quot;white-space: pre;&quot;&gt;&#x9;&lt;span style=&quot;white-space: pre;&quot;&gt;&#x9;&lt;/span&gt;&lt;span style=&quot;white-space: pre;&quot;&gt;&#x9;&lt;/span&gt;&lt;/span&gt;&lt;/span&gt;&lt;/span&gt;&lt;/span&gt;VARCHAR(255)&amp;nbsp;NOT NULL" style="shape=partialRectangle;connectable=0;fillColor=none;top=0;left=0;bottom=0;right=0;align=left;spacingLeft=6;overflow=hidden;whiteSpace=wrap;html=1;fontSize=16;" vertex="1" parent="c6OgAKPzxv5L_kpb_E-i-57">
          <mxGeometry x="30" width="411" height="30" as="geometry">
            <mxRectangle width="411" height="30" as="alternateBounds" />
          </mxGeometry>
        </mxCell>
        <mxCell id="c6OgAKPzxv5L_kpb_E-i-60" value="" style="shape=tableRow;horizontal=0;startSize=0;swimlaneHead=0;swimlaneBody=0;fillColor=none;collapsible=0;dropTarget=0;points=[[0,0.5],[1,0.5]];portConstraint=eastwest;top=0;left=0;right=0;bottom=0;fontSize=16;" vertex="1" parent="c6OgAKPzxv5L_kpb_E-i-53">
          <mxGeometry y="90" width="441" height="30" as="geometry" />
        </mxCell>
        <mxCell id="c6OgAKPzxv5L_kpb_E-i-61" value="" style="shape=partialRectangle;connectable=0;fillColor=none;top=0;left=0;bottom=0;right=0;editable=1;overflow=hidden;whiteSpace=wrap;html=1;fontSize=16;" vertex="1" parent="c6OgAKPzxv5L_kpb_E-i-60">
          <mxGeometry width="30" height="30" as="geometry">
            <mxRectangle width="30" height="30" as="alternateBounds" />
          </mxGeometry>
        </mxCell>
        <mxCell id="c6OgAKPzxv5L_kpb_E-i-62" value="ip&amp;nbsp;&lt;span style=&quot;border-color: var(--border-color);&quot;&gt;&lt;span style=&quot;&quot;&gt;&amp;nbsp;&amp;nbsp;&amp;nbsp;&amp;nbsp;&lt;span style=&quot;&quot;&gt;&lt;span style=&quot;white-space: pre;&quot;&gt;&amp;nbsp;&amp;nbsp;&amp;nbsp;&amp;nbsp;&lt;/span&gt;&lt;span style=&quot;&quot;&gt;&lt;span style=&quot;white-space: pre;&quot;&gt;&amp;nbsp;&amp;nbsp;&amp;nbsp;&amp;nbsp;&lt;span style=&quot;white-space: pre;&quot;&gt;&#x9;&lt;span style=&quot;white-space: pre;&quot;&gt;&#x9;&lt;/span&gt;&lt;span style=&quot;white-space: pre;&quot;&gt;&#x9;&lt;/span&gt;&lt;/span&gt;&lt;/span&gt;&lt;/span&gt;&lt;/span&gt;&lt;/span&gt;&lt;/span&gt;VARCHAR(255)&amp;nbsp;NOT NULL" style="shape=partialRectangle;connectable=0;fillColor=none;top=0;left=0;bottom=0;right=0;align=left;spacingLeft=6;overflow=hidden;whiteSpace=wrap;html=1;fontSize=16;" vertex="1" parent="c6OgAKPzxv5L_kpb_E-i-60">
          <mxGeometry x="30" width="411" height="30" as="geometry">
            <mxRectangle width="411" height="30" as="alternateBounds" />
          </mxGeometry>
        </mxCell>
        <mxCell id="c6OgAKPzxv5L_kpb_E-i-63" value="" style="shape=tableRow;horizontal=0;startSize=0;swimlaneHead=0;swimlaneBody=0;fillColor=none;collapsible=0;dropTarget=0;points=[[0,0.5],[1,0.5]];portConstraint=eastwest;top=0;left=0;right=0;bottom=0;fontSize=16;" vertex="1" parent="c6OgAKPzxv5L_kpb_E-i-53">
          <mxGeometry y="120" width="441" height="30" as="geometry" />
        </mxCell>
        <mxCell id="c6OgAKPzxv5L_kpb_E-i-64" value="" style="shape=partialRectangle;connectable=0;fillColor=none;top=0;left=0;bottom=0;right=0;editable=1;overflow=hidden;whiteSpace=wrap;html=1;fontSize=16;" vertex="1" parent="c6OgAKPzxv5L_kpb_E-i-63">
          <mxGeometry width="30" height="30" as="geometry">
            <mxRectangle width="30" height="30" as="alternateBounds" />
          </mxGeometry>
        </mxCell>
        <mxCell id="c6OgAKPzxv5L_kpb_E-i-65" value="device&lt;span style=&quot;&quot;&gt;&lt;span style=&quot;white-space: pre;&quot;&gt;&amp;nbsp;&amp;nbsp;&amp;nbsp;&amp;nbsp;&lt;/span&gt;&lt;/span&gt;&lt;span style=&quot;&quot;&gt;&lt;span style=&quot;white-space: pre;&quot;&gt;&amp;nbsp;&amp;nbsp;&amp;nbsp;&amp;nbsp;&lt;/span&gt;&lt;span style=&quot;&quot;&gt;&lt;span style=&quot;white-space: pre;&quot;&gt;&amp;nbsp;&amp;nbsp;&amp;nbsp;&amp;nbsp;&lt;span style=&quot;white-space: pre;&quot;&gt;&#x9;&lt;/span&gt;&lt;span style=&quot;white-space: pre;&quot;&gt;&#x9;&lt;span style=&quot;white-space: pre;&quot;&gt;&#x9;&lt;/span&gt;&lt;/span&gt;&lt;/span&gt;&lt;/span&gt;&lt;/span&gt;VARCHAR(255)&amp;nbsp;NOT NULL" style="shape=partialRectangle;connectable=0;fillColor=none;top=0;left=0;bottom=0;right=0;align=left;spacingLeft=6;overflow=hidden;whiteSpace=wrap;html=1;fontSize=16;" vertex="1" parent="c6OgAKPzxv5L_kpb_E-i-63">
          <mxGeometry x="30" width="411" height="30" as="geometry">
            <mxRectangle width="411" height="30" as="alternateBounds" />
          </mxGeometry>
        </mxCell>
        <mxCell id="c6OgAKPzxv5L_kpb_E-i-66" value="" style="shape=tableRow;horizontal=0;startSize=0;swimlaneHead=0;swimlaneBody=0;fillColor=none;collapsible=0;dropTarget=0;points=[[0,0.5],[1,0.5]];portConstraint=eastwest;top=0;left=0;right=0;bottom=0;fontSize=16;" vertex="1" parent="c6OgAKPzxv5L_kpb_E-i-53">
          <mxGeometry y="150" width="441" height="30" as="geometry" />
        </mxCell>
        <mxCell id="c6OgAKPzxv5L_kpb_E-i-67" value="" style="shape=partialRectangle;connectable=0;fillColor=none;top=0;left=0;bottom=0;right=0;editable=1;overflow=hidden;whiteSpace=wrap;html=1;fontSize=16;" vertex="1" parent="c6OgAKPzxv5L_kpb_E-i-66">
          <mxGeometry width="30" height="30" as="geometry">
            <mxRectangle width="30" height="30" as="alternateBounds" />
          </mxGeometry>
        </mxCell>
        <mxCell id="c6OgAKPzxv5L_kpb_E-i-68" value="userPerformerId&amp;nbsp;&lt;span style=&quot;border-color: var(--border-color);&quot;&gt;&lt;span style=&quot;&quot;&gt;&amp;nbsp;&amp;nbsp;&amp;nbsp;&amp;nbsp;&lt;span style=&quot;&quot;&gt;&lt;span style=&quot;white-space: pre;&quot;&gt;&amp;nbsp;&amp;nbsp;&amp;nbsp;&amp;nbsp;&lt;/span&gt;&lt;span style=&quot;&quot;&gt;&lt;span style=&quot;white-space: pre;&quot;&gt;&amp;nbsp;&amp;nbsp;&amp;nbsp;&amp;nbsp;&lt;span style=&quot;white-space: pre;&quot;&gt;&#x9;&lt;/span&gt;&lt;/span&gt;&lt;/span&gt;&lt;/span&gt;&lt;/span&gt;&lt;/span&gt;UUID" style="shape=partialRectangle;connectable=0;fillColor=none;top=0;left=0;bottom=0;right=0;align=left;spacingLeft=6;overflow=hidden;whiteSpace=wrap;html=1;fontSize=16;" vertex="1" parent="c6OgAKPzxv5L_kpb_E-i-66">
          <mxGeometry x="30" width="411" height="30" as="geometry">
            <mxRectangle width="411" height="30" as="alternateBounds" />
          </mxGeometry>
        </mxCell>
        <mxCell id="c6OgAKPzxv5L_kpb_E-i-69" value="" style="shape=tableRow;horizontal=0;startSize=0;swimlaneHead=0;swimlaneBody=0;fillColor=none;collapsible=0;dropTarget=0;points=[[0,0.5],[1,0.5]];portConstraint=eastwest;top=0;left=0;right=0;bottom=0;fontSize=16;" vertex="1" parent="c6OgAKPzxv5L_kpb_E-i-53">
          <mxGeometry y="180" width="441" height="30" as="geometry" />
        </mxCell>
        <mxCell id="c6OgAKPzxv5L_kpb_E-i-70" value="" style="shape=partialRectangle;connectable=0;fillColor=none;top=0;left=0;bottom=0;right=0;editable=1;overflow=hidden;whiteSpace=wrap;html=1;fontSize=16;" vertex="1" parent="c6OgAKPzxv5L_kpb_E-i-69">
          <mxGeometry width="30" height="30" as="geometry">
            <mxRectangle width="30" height="30" as="alternateBounds" />
          </mxGeometry>
        </mxCell>
        <mxCell id="c6OgAKPzxv5L_kpb_E-i-71" value="userPerformerEmail&lt;span style=&quot;&quot;&gt;&lt;span style=&quot;&quot;&gt;&amp;nbsp; &amp;nbsp;&amp;nbsp;&lt;span style=&quot;&quot;&gt;&lt;span style=&quot;white-space: pre;&quot;&gt;&amp;nbsp;&amp;nbsp;&amp;nbsp;&amp;nbsp;&lt;/span&gt;&lt;/span&gt;&lt;/span&gt;&lt;/span&gt;VARCHAR(255)" style="shape=partialRectangle;connectable=0;fillColor=none;top=0;left=0;bottom=0;right=0;align=left;spacingLeft=6;overflow=hidden;whiteSpace=wrap;html=1;fontSize=16;" vertex="1" parent="c6OgAKPzxv5L_kpb_E-i-69">
          <mxGeometry x="30" width="411" height="30" as="geometry">
            <mxRectangle width="411" height="30" as="alternateBounds" />
          </mxGeometry>
        </mxCell>
        <mxCell id="c6OgAKPzxv5L_kpb_E-i-72" value="" style="shape=tableRow;horizontal=0;startSize=0;swimlaneHead=0;swimlaneBody=0;fillColor=none;collapsible=0;dropTarget=0;points=[[0,0.5],[1,0.5]];portConstraint=eastwest;top=0;left=0;right=0;bottom=0;fontSize=16;" vertex="1" parent="c6OgAKPzxv5L_kpb_E-i-53">
          <mxGeometry y="210" width="441" height="20" as="geometry" />
        </mxCell>
        <mxCell id="c6OgAKPzxv5L_kpb_E-i-73" value="" style="shape=partialRectangle;connectable=0;fillColor=none;top=0;left=0;bottom=0;right=0;editable=1;overflow=hidden;whiteSpace=wrap;html=1;fontSize=16;" vertex="1" parent="c6OgAKPzxv5L_kpb_E-i-72">
          <mxGeometry width="30" height="20" as="geometry">
            <mxRectangle width="30" height="20" as="alternateBounds" />
          </mxGeometry>
        </mxCell>
        <mxCell id="c6OgAKPzxv5L_kpb_E-i-74" value="userAffectedId&lt;span style=&quot;&quot;&gt;&lt;span style=&quot;&quot;&gt;&amp;nbsp; &amp;nbsp;&amp;nbsp;&lt;span style=&quot;&quot;&gt;&lt;span style=&quot;white-space: pre;&quot;&gt;&amp;nbsp;&amp;nbsp;&amp;nbsp;&amp;nbsp;&lt;span style=&quot;white-space: pre;&quot;&gt;&#x9;&lt;/span&gt;&lt;span style=&quot;white-space: pre;&quot;&gt;&#x9;&lt;/span&gt;&lt;/span&gt;&lt;/span&gt;&lt;/span&gt;&lt;/span&gt;UUID" style="shape=partialRectangle;connectable=0;fillColor=none;top=0;left=0;bottom=0;right=0;align=left;spacingLeft=6;overflow=hidden;whiteSpace=wrap;html=1;fontSize=16;" vertex="1" parent="c6OgAKPzxv5L_kpb_E-i-72">
          <mxGeometry x="30" width="411" height="20" as="geometry">
            <mxRectangle width="411" height="20" as="alternateBounds" />
          </mxGeometry>
        </mxCell>
        <mxCell id="c6OgAKPzxv5L_kpb_E-i-75" value="" style="shape=tableRow;horizontal=0;startSize=0;swimlaneHead=0;swimlaneBody=0;fillColor=none;collapsible=0;dropTarget=0;points=[[0,0.5],[1,0.5]];portConstraint=eastwest;top=0;left=0;right=0;bottom=0;fontSize=16;" vertex="1" parent="c6OgAKPzxv5L_kpb_E-i-53">
          <mxGeometry y="230" width="441" height="30" as="geometry" />
        </mxCell>
        <mxCell id="c6OgAKPzxv5L_kpb_E-i-76" value="" style="shape=partialRectangle;connectable=0;fillColor=none;top=0;left=0;bottom=0;right=0;editable=1;overflow=hidden;whiteSpace=wrap;html=1;fontSize=16;" vertex="1" parent="c6OgAKPzxv5L_kpb_E-i-75">
          <mxGeometry width="30" height="30" as="geometry">
            <mxRectangle width="30" height="30" as="alternateBounds" />
          </mxGeometry>
        </mxCell>
        <mxCell id="c6OgAKPzxv5L_kpb_E-i-77" value="userAffectedEmail&lt;span style=&quot;&quot;&gt;&lt;span style=&quot;white-space: pre;&quot;&gt;&amp;nbsp;&amp;nbsp;&amp;nbsp;&amp;nbsp;&lt;/span&gt;&lt;/span&gt;&lt;span style=&quot;&quot;&gt;&lt;span style=&quot;white-space: pre;&quot;&gt;&amp;nbsp;&amp;nbsp;&amp;nbsp;&amp;nbsp;&lt;/span&gt;&lt;/span&gt;&lt;span style=&quot;&quot;&gt;&lt;span style=&quot;white-space: pre;&quot;&gt;&amp;nbsp;&amp;nbsp;&lt;span style=&quot;white-space: pre;&quot;&gt;&#x9;&lt;/span&gt;&lt;/span&gt;&lt;/span&gt;VARCHAR(255)" style="shape=partialRectangle;connectable=0;fillColor=none;top=0;left=0;bottom=0;right=0;align=left;spacingLeft=6;overflow=hidden;whiteSpace=wrap;html=1;fontSize=16;" vertex="1" parent="c6OgAKPzxv5L_kpb_E-i-75">
          <mxGeometry x="30" width="411" height="30" as="geometry">
            <mxRectangle width="411" height="30" as="alternateBounds" />
          </mxGeometry>
        </mxCell>
        <mxCell id="c6OgAKPzxv5L_kpb_E-i-78" value="" style="shape=tableRow;horizontal=0;startSize=0;swimlaneHead=0;swimlaneBody=0;fillColor=none;collapsible=0;dropTarget=0;points=[[0,0.5],[1,0.5]];portConstraint=eastwest;top=0;left=0;right=0;bottom=0;fontSize=16;" vertex="1" parent="c6OgAKPzxv5L_kpb_E-i-53">
          <mxGeometry y="260" width="441" height="30" as="geometry" />
        </mxCell>
        <mxCell id="c6OgAKPzxv5L_kpb_E-i-79" value="" style="shape=partialRectangle;connectable=0;fillColor=none;top=0;left=0;bottom=0;right=0;editable=1;overflow=hidden;whiteSpace=wrap;html=1;fontSize=16;" vertex="1" parent="c6OgAKPzxv5L_kpb_E-i-78">
          <mxGeometry width="30" height="30" as="geometry">
            <mxRectangle width="30" height="30" as="alternateBounds" />
          </mxGeometry>
        </mxCell>
        <mxCell id="c6OgAKPzxv5L_kpb_E-i-80" value="notes&lt;span style=&quot;white-space: pre;&quot;&gt;&#x9;&lt;/span&gt;&lt;span style=&quot;white-space: pre;&quot;&gt;&#x9;&lt;/span&gt;&lt;span style=&quot;white-space: pre;&quot;&gt;&#x9;&lt;span style=&quot;white-space: pre;&quot;&gt;&#x9;&lt;/span&gt;&lt;/span&gt;VARCHAR(512)" style="shape=partialRectangle;connectable=0;fillColor=none;top=0;left=0;bottom=0;right=0;align=left;spacingLeft=6;overflow=hidden;whiteSpace=wrap;html=1;fontSize=16;" vertex="1" parent="c6OgAKPzxv5L_kpb_E-i-78">
          <mxGeometry x="30" width="411" height="30" as="geometry">
            <mxRectangle width="411" height="30" as="alternateBounds" />
          </mxGeometry>
        </mxCell>
        <mxCell id="c6OgAKPzxv5L_kpb_E-i-81" value="" style="shape=tableRow;horizontal=0;startSize=0;swimlaneHead=0;swimlaneBody=0;fillColor=none;collapsible=0;dropTarget=0;points=[[0,0.5],[1,0.5]];portConstraint=eastwest;top=0;left=0;right=0;bottom=0;fontSize=16;" vertex="1" parent="c6OgAKPzxv5L_kpb_E-i-53">
          <mxGeometry y="290" width="441" height="30" as="geometry" />
        </mxCell>
        <mxCell id="c6OgAKPzxv5L_kpb_E-i-82" value="" style="shape=partialRectangle;connectable=0;fillColor=none;top=0;left=0;bottom=0;right=0;editable=1;overflow=hidden;whiteSpace=wrap;html=1;fontSize=16;" vertex="1" parent="c6OgAKPzxv5L_kpb_E-i-81">
          <mxGeometry width="30" height="30" as="geometry">
            <mxRectangle width="30" height="30" as="alternateBounds" />
          </mxGeometry>
        </mxCell>
        <mxCell id="c6OgAKPzxv5L_kpb_E-i-83" value="updatedAt&lt;span style=&quot;&quot;&gt;&lt;span style=&quot;white-space: pre;&quot;&gt;&amp;nbsp;&amp;nbsp;&amp;nbsp;&amp;nbsp;&lt;/span&gt;&lt;/span&gt;&lt;span style=&quot;&quot;&gt;&lt;span style=&quot;white-space: pre;&quot;&gt;&amp;nbsp;&amp;nbsp;&amp;nbsp;&amp;nbsp;&lt;span style=&quot;white-space: pre;&quot;&gt;&#x9;&lt;span style=&quot;white-space: pre;&quot;&gt;&#x9;&lt;/span&gt;&lt;/span&gt;&lt;/span&gt;&lt;/span&gt;TIMESTAMPTZ&amp;nbsp; NOT NULL" style="shape=partialRectangle;connectable=0;fillColor=none;top=0;left=0;bottom=0;right=0;align=left;spacingLeft=6;overflow=hidden;whiteSpace=wrap;html=1;fontSize=16;" vertex="1" parent="c6OgAKPzxv5L_kpb_E-i-81">
          <mxGeometry x="30" width="411" height="30" as="geometry">
            <mxRectangle width="411" height="30" as="alternateBounds" />
          </mxGeometry>
        </mxCell>
        <mxCell id="c6OgAKPzxv5L_kpb_E-i-90" value="" style="shape=tableRow;horizontal=0;startSize=0;swimlaneHead=0;swimlaneBody=0;fillColor=none;collapsible=0;dropTarget=0;points=[[0,0.5],[1,0.5]];portConstraint=eastwest;top=0;left=0;right=0;bottom=0;fontSize=16;" vertex="1" parent="c6OgAKPzxv5L_kpb_E-i-53">
          <mxGeometry y="320" width="441" height="30" as="geometry" />
        </mxCell>
        <mxCell id="c6OgAKPzxv5L_kpb_E-i-91" value="" style="shape=partialRectangle;connectable=0;fillColor=none;top=0;left=0;bottom=0;right=0;editable=1;overflow=hidden;whiteSpace=wrap;html=1;fontSize=16;" vertex="1" parent="c6OgAKPzxv5L_kpb_E-i-90">
          <mxGeometry width="30" height="30" as="geometry">
            <mxRectangle width="30" height="30" as="alternateBounds" />
          </mxGeometry>
        </mxCell>
        <mxCell id="c6OgAKPzxv5L_kpb_E-i-92" value="createdAt&lt;span style=&quot;white-space: pre;&quot;&gt;&#x9;&lt;/span&gt;&lt;span style=&quot;white-space: pre;&quot;&gt;&#x9;&lt;/span&gt;&lt;span style=&quot;white-space: pre;&quot;&gt;&#x9;&lt;span style=&quot;white-space: pre;&quot;&gt;&#x9;&lt;/span&gt;&lt;/span&gt;TIMESTAMPTZ&amp;nbsp; NOT NULL" style="shape=partialRectangle;connectable=0;fillColor=none;top=0;left=0;bottom=0;right=0;align=left;spacingLeft=6;overflow=hidden;whiteSpace=wrap;html=1;fontSize=16;" vertex="1" parent="c6OgAKPzxv5L_kpb_E-i-90">
          <mxGeometry x="30" width="411" height="30" as="geometry">
            <mxRectangle width="411" height="30" as="alternateBounds" />
          </mxGeometry>
        </mxCell>
        <mxCell id="c6OgAKPzxv5L_kpb_E-i-93" value="" style="shape=tableRow;horizontal=0;startSize=0;swimlaneHead=0;swimlaneBody=0;fillColor=none;collapsible=0;dropTarget=0;points=[[0,0.5],[1,0.5]];portConstraint=eastwest;top=1;left=0;right=0;bottom=0;fontSize=16;" vertex="1" parent="c6OgAKPzxv5L_kpb_E-i-53">
          <mxGeometry y="350" width="441" height="30" as="geometry" />
        </mxCell>
        <mxCell id="c6OgAKPzxv5L_kpb_E-i-94" value="" style="shape=partialRectangle;connectable=0;fillColor=none;top=0;left=0;bottom=0;right=0;editable=1;overflow=hidden;whiteSpace=wrap;html=1;fontSize=16;" vertex="1" parent="c6OgAKPzxv5L_kpb_E-i-93">
          <mxGeometry width="30" height="30" as="geometry">
            <mxRectangle width="30" height="30" as="alternateBounds" />
          </mxGeometry>
        </mxCell>
        <mxCell id="c6OgAKPzxv5L_kpb_E-i-95" value="USER_PERFORMER_FK(userPerformerId)" style="shape=partialRectangle;connectable=0;fillColor=none;top=0;left=0;bottom=0;right=0;align=left;spacingLeft=6;overflow=hidden;whiteSpace=wrap;html=1;fontSize=16;" vertex="1" parent="c6OgAKPzxv5L_kpb_E-i-93">
          <mxGeometry x="30" width="411" height="30" as="geometry">
            <mxRectangle width="411" height="30" as="alternateBounds" />
          </mxGeometry>
        </mxCell>
        <mxCell id="c6OgAKPzxv5L_kpb_E-i-96" value="" style="shape=tableRow;horizontal=0;startSize=0;swimlaneHead=0;swimlaneBody=0;fillColor=none;collapsible=0;dropTarget=0;points=[[0,0.5],[1,0.5]];portConstraint=eastwest;top=0;left=0;right=0;bottom=0;fontSize=16;" vertex="1" parent="c6OgAKPzxv5L_kpb_E-i-53">
          <mxGeometry y="380" width="441" height="30" as="geometry" />
        </mxCell>
        <mxCell id="c6OgAKPzxv5L_kpb_E-i-97" value="" style="shape=partialRectangle;connectable=0;fillColor=none;top=0;left=0;bottom=0;right=0;editable=1;overflow=hidden;whiteSpace=wrap;html=1;fontSize=16;" vertex="1" parent="c6OgAKPzxv5L_kpb_E-i-96">
          <mxGeometry width="30" height="30" as="geometry">
            <mxRectangle width="30" height="30" as="alternateBounds" />
          </mxGeometry>
        </mxCell>
        <mxCell id="c6OgAKPzxv5L_kpb_E-i-98" value="USER_AFFECTED_FK(userAffectedId)" style="shape=partialRectangle;connectable=0;fillColor=none;top=0;left=0;bottom=0;right=0;align=left;spacingLeft=6;overflow=hidden;whiteSpace=wrap;html=1;fontSize=16;" vertex="1" parent="c6OgAKPzxv5L_kpb_E-i-96">
          <mxGeometry x="30" width="411" height="30" as="geometry">
            <mxRectangle width="411" height="30" as="alternateBounds" />
          </mxGeometry>
        </mxCell>
        <mxCell id="c6OgAKPzxv5L_kpb_E-i-102" style="edgeStyle=none;curved=1;rounded=0;orthogonalLoop=1;jettySize=auto;html=1;entryX=1;entryY=0.5;entryDx=0;entryDy=0;fontFamily=Helvetica;fontSize=16;fontColor=default;startSize=0;endSize=8;endArrow=ERmany;endFill=0;dashed=1;exitX=0;exitY=0.5;exitDx=0;exitDy=0;" edge="1" parent="1" source="hoUAYPuTTzx3VVZblNIO-33" target="c6OgAKPzxv5L_kpb_E-i-75">
          <mxGeometry relative="1" as="geometry">
            <mxPoint x="-520" y="60" as="sourcePoint" />
          </mxGeometry>
        </mxCell>
        <mxCell id="c6OgAKPzxv5L_kpb_E-i-103" style="edgeStyle=none;curved=1;rounded=0;orthogonalLoop=1;jettySize=auto;html=1;entryX=0.998;entryY=0;entryDx=0;entryDy=0;fontFamily=Helvetica;fontSize=16;fontColor=default;startSize=0;endSize=8;endArrow=ERmany;endFill=0;dashed=1;entryPerimeter=0;" edge="1" parent="1" target="c6OgAKPzxv5L_kpb_E-i-69">
          <mxGeometry relative="1" as="geometry">
            <mxPoint x="-520" as="sourcePoint" />
          </mxGeometry>
        </mxCell>
        <mxCell id="c6OgAKPzxv5L_kpb_E-i-104" value="Workspace" style="shape=table;startSize=30;container=1;collapsible=1;childLayout=tableLayout;fixedRows=1;rowLines=0;fontStyle=1;align=center;resizeLast=1;html=1;fontSize=16;" vertex="1" parent="1">
          <mxGeometry x="40" y="120" width="440" height="240" as="geometry" />
        </mxCell>
        <mxCell id="c6OgAKPzxv5L_kpb_E-i-105" value="" style="shape=tableRow;horizontal=0;startSize=0;swimlaneHead=0;swimlaneBody=0;fillColor=none;collapsible=0;dropTarget=0;points=[[0,0.5],[1,0.5]];portConstraint=eastwest;top=0;left=0;right=0;bottom=1;fontSize=16;" vertex="1" parent="c6OgAKPzxv5L_kpb_E-i-104">
          <mxGeometry y="30" width="440" height="30" as="geometry" />
        </mxCell>
        <mxCell id="c6OgAKPzxv5L_kpb_E-i-106" value="PK" style="shape=partialRectangle;connectable=0;fillColor=none;top=0;left=0;bottom=0;right=0;fontStyle=1;overflow=hidden;whiteSpace=wrap;html=1;fontSize=16;" vertex="1" parent="c6OgAKPzxv5L_kpb_E-i-105">
          <mxGeometry width="30" height="30" as="geometry">
            <mxRectangle width="30" height="30" as="alternateBounds" />
          </mxGeometry>
        </mxCell>
        <mxCell id="c6OgAKPzxv5L_kpb_E-i-107" value="id&lt;span style=&quot;white-space: pre;&quot;&gt;&#x9;&lt;/span&gt;&lt;span style=&quot;white-space: pre;&quot;&gt;&#x9;&lt;/span&gt;&lt;span style=&quot;white-space: pre;&quot;&gt;&#x9;&lt;/span&gt;&lt;span style=&quot;white-space: pre;&quot;&gt;&#x9;&lt;/span&gt;UUID" style="shape=partialRectangle;connectable=0;fillColor=none;top=0;left=0;bottom=0;right=0;align=left;spacingLeft=6;fontStyle=5;overflow=hidden;whiteSpace=wrap;html=1;fontSize=16;" vertex="1" parent="c6OgAKPzxv5L_kpb_E-i-105">
          <mxGeometry x="30" width="410" height="30" as="geometry">
            <mxRectangle width="410" height="30" as="alternateBounds" />
          </mxGeometry>
        </mxCell>
        <mxCell id="c6OgAKPzxv5L_kpb_E-i-108" value="" style="shape=tableRow;horizontal=0;startSize=0;swimlaneHead=0;swimlaneBody=0;fillColor=none;collapsible=0;dropTarget=0;points=[[0,0.5],[1,0.5]];portConstraint=eastwest;top=0;left=0;right=0;bottom=0;fontSize=16;" vertex="1" parent="c6OgAKPzxv5L_kpb_E-i-104">
          <mxGeometry y="60" width="440" height="30" as="geometry" />
        </mxCell>
        <mxCell id="c6OgAKPzxv5L_kpb_E-i-109" value="" style="shape=partialRectangle;connectable=0;fillColor=none;top=0;left=0;bottom=0;right=0;editable=1;overflow=hidden;whiteSpace=wrap;html=1;fontSize=16;" vertex="1" parent="c6OgAKPzxv5L_kpb_E-i-108">
          <mxGeometry width="30" height="30" as="geometry">
            <mxRectangle width="30" height="30" as="alternateBounds" />
          </mxGeometry>
        </mxCell>
        <mxCell id="c6OgAKPzxv5L_kpb_E-i-110" value="name&lt;span style=&quot;&quot;&gt;&lt;span style=&quot;white-space: pre;&quot;&gt;&amp;nbsp;&amp;nbsp;&amp;nbsp;&amp;nbsp;&lt;/span&gt;&lt;/span&gt;&lt;span style=&quot;&quot;&gt;&lt;span style=&quot;white-space: pre;&quot;&gt;&amp;nbsp;&amp;nbsp;&amp;nbsp;&amp;nbsp;&lt;/span&gt;&lt;span style=&quot;&quot;&gt;&lt;span style=&quot;white-space: pre;&quot;&gt;&amp;nbsp;&amp;nbsp;&amp;nbsp;&amp;nbsp;&lt;span style=&quot;white-space: pre;&quot;&gt;&#x9;&lt;span style=&quot;white-space: pre;&quot;&gt;&#x9;&lt;/span&gt;&lt;/span&gt;&lt;/span&gt;&lt;/span&gt;&lt;/span&gt;VARCHAR(255)&amp;nbsp;NOT NULL" style="shape=partialRectangle;connectable=0;fillColor=none;top=0;left=0;bottom=0;right=0;align=left;spacingLeft=6;overflow=hidden;whiteSpace=wrap;html=1;fontSize=16;" vertex="1" parent="c6OgAKPzxv5L_kpb_E-i-108">
          <mxGeometry x="30" width="410" height="30" as="geometry">
            <mxRectangle width="410" height="30" as="alternateBounds" />
          </mxGeometry>
        </mxCell>
        <mxCell id="c6OgAKPzxv5L_kpb_E-i-126" value="" style="shape=tableRow;horizontal=0;startSize=0;swimlaneHead=0;swimlaneBody=0;fillColor=none;collapsible=0;dropTarget=0;points=[[0,0.5],[1,0.5]];portConstraint=eastwest;top=0;left=0;right=0;bottom=0;fontSize=16;" vertex="1" parent="c6OgAKPzxv5L_kpb_E-i-104">
          <mxGeometry y="90" width="440" height="30" as="geometry" />
        </mxCell>
        <mxCell id="c6OgAKPzxv5L_kpb_E-i-127" value="" style="shape=partialRectangle;connectable=0;fillColor=none;top=0;left=0;bottom=0;right=0;editable=1;overflow=hidden;whiteSpace=wrap;html=1;fontSize=16;" vertex="1" parent="c6OgAKPzxv5L_kpb_E-i-126">
          <mxGeometry width="30" height="30" as="geometry">
            <mxRectangle width="30" height="30" as="alternateBounds" />
          </mxGeometry>
        </mxCell>
        <mxCell id="c6OgAKPzxv5L_kpb_E-i-128" value="isDefault&lt;span style=&quot;white-space: pre;&quot;&gt;&#x9;&lt;/span&gt;&lt;span style=&quot;white-space: pre;&quot;&gt;&#x9;&lt;/span&gt;&lt;span style=&quot;white-space: pre;&quot;&gt;&#x9;&lt;/span&gt;BOOLEAN" style="shape=partialRectangle;connectable=0;fillColor=none;top=0;left=0;bottom=0;right=0;align=left;spacingLeft=6;overflow=hidden;whiteSpace=wrap;html=1;fontSize=16;" vertex="1" parent="c6OgAKPzxv5L_kpb_E-i-126">
          <mxGeometry x="30" width="410" height="30" as="geometry">
            <mxRectangle width="410" height="30" as="alternateBounds" />
          </mxGeometry>
        </mxCell>
        <mxCell id="c6OgAKPzxv5L_kpb_E-i-129" value="" style="shape=tableRow;horizontal=0;startSize=0;swimlaneHead=0;swimlaneBody=0;fillColor=none;collapsible=0;dropTarget=0;points=[[0,0.5],[1,0.5]];portConstraint=eastwest;top=0;left=0;right=0;bottom=0;fontSize=16;" vertex="1" parent="c6OgAKPzxv5L_kpb_E-i-104">
          <mxGeometry y="120" width="440" height="30" as="geometry" />
        </mxCell>
        <mxCell id="c6OgAKPzxv5L_kpb_E-i-130" value="" style="shape=partialRectangle;connectable=0;fillColor=none;top=0;left=0;bottom=0;right=0;editable=1;overflow=hidden;whiteSpace=wrap;html=1;fontSize=16;" vertex="1" parent="c6OgAKPzxv5L_kpb_E-i-129">
          <mxGeometry width="30" height="30" as="geometry">
            <mxRectangle width="30" height="30" as="alternateBounds" />
          </mxGeometry>
        </mxCell>
        <mxCell id="c6OgAKPzxv5L_kpb_E-i-131" value="createdAt&lt;span style=&quot;white-space: pre;&quot;&gt;&#x9;&lt;/span&gt;&lt;span style=&quot;white-space: pre;&quot;&gt;&#x9;&lt;/span&gt;&lt;span style=&quot;white-space: pre;&quot;&gt;&#x9;&lt;/span&gt;TIMESTAMPTZ&amp;nbsp; NOT NULL" style="shape=partialRectangle;connectable=0;fillColor=none;top=0;left=0;bottom=0;right=0;align=left;spacingLeft=6;overflow=hidden;whiteSpace=wrap;html=1;fontSize=16;" vertex="1" parent="c6OgAKPzxv5L_kpb_E-i-129">
          <mxGeometry x="30" width="410" height="30" as="geometry">
            <mxRectangle width="410" height="30" as="alternateBounds" />
          </mxGeometry>
        </mxCell>
        <mxCell id="c6OgAKPzxv5L_kpb_E-i-132" value="" style="shape=tableRow;horizontal=0;startSize=0;swimlaneHead=0;swimlaneBody=0;fillColor=none;collapsible=0;dropTarget=0;points=[[0,0.5],[1,0.5]];portConstraint=eastwest;top=0;left=0;right=0;bottom=0;fontSize=16;" vertex="1" parent="c6OgAKPzxv5L_kpb_E-i-104">
          <mxGeometry y="150" width="440" height="30" as="geometry" />
        </mxCell>
        <mxCell id="c6OgAKPzxv5L_kpb_E-i-133" value="" style="shape=partialRectangle;connectable=0;fillColor=none;top=0;left=0;bottom=0;right=0;editable=1;overflow=hidden;whiteSpace=wrap;html=1;fontSize=16;" vertex="1" parent="c6OgAKPzxv5L_kpb_E-i-132">
          <mxGeometry width="30" height="30" as="geometry">
            <mxRectangle width="30" height="30" as="alternateBounds" />
          </mxGeometry>
        </mxCell>
        <mxCell id="c6OgAKPzxv5L_kpb_E-i-134" value="updatedAt&lt;span style=&quot;&quot;&gt;&lt;span style=&quot;white-space: pre;&quot;&gt;&amp;nbsp;&amp;nbsp;&amp;nbsp;&amp;nbsp;&lt;/span&gt;&lt;/span&gt;&lt;span style=&quot;&quot;&gt;&lt;span style=&quot;white-space: pre;&quot;&gt;&amp;nbsp;&amp;nbsp;&amp;nbsp;&amp;nbsp;&lt;span style=&quot;white-space: pre;&quot;&gt;&#x9;&lt;/span&gt;&lt;/span&gt;&lt;/span&gt;TIMESTAMPTZ&amp;nbsp; NOT NULL" style="shape=partialRectangle;connectable=0;fillColor=none;top=0;left=0;bottom=0;right=0;align=left;spacingLeft=6;overflow=hidden;whiteSpace=wrap;html=1;fontSize=16;" vertex="1" parent="c6OgAKPzxv5L_kpb_E-i-132">
          <mxGeometry x="30" width="410" height="30" as="geometry">
            <mxRectangle width="410" height="30" as="alternateBounds" />
          </mxGeometry>
        </mxCell>
        <mxCell id="c6OgAKPzxv5L_kpb_E-i-135" value="" style="shape=tableRow;horizontal=0;startSize=0;swimlaneHead=0;swimlaneBody=0;fillColor=none;collapsible=0;dropTarget=0;points=[[0,0.5],[1,0.5]];portConstraint=eastwest;top=0;left=0;right=0;bottom=0;fontSize=16;strokeWidth=1;swimlaneLine=1;separatorColor=#000000;" vertex="1" parent="c6OgAKPzxv5L_kpb_E-i-104">
          <mxGeometry y="180" width="440" height="30" as="geometry" />
        </mxCell>
        <mxCell id="c6OgAKPzxv5L_kpb_E-i-136" value="" style="shape=partialRectangle;connectable=0;fillColor=none;top=0;left=0;bottom=0;right=0;editable=1;overflow=hidden;whiteSpace=wrap;html=1;fontSize=16;" vertex="1" parent="c6OgAKPzxv5L_kpb_E-i-135">
          <mxGeometry width="30" height="30" as="geometry">
            <mxRectangle width="30" height="30" as="alternateBounds" />
          </mxGeometry>
        </mxCell>
        <mxCell id="c6OgAKPzxv5L_kpb_E-i-137" value="userId&lt;span style=&quot;white-space: pre;&quot;&gt;&#x9;&lt;/span&gt;&lt;span style=&quot;white-space: pre;&quot;&gt;&#x9;&lt;/span&gt;&lt;span style=&quot;white-space: pre;&quot;&gt;&#x9;&lt;/span&gt;UUID NOT NULL&amp;nbsp;" style="shape=partialRectangle;connectable=0;fillColor=none;top=0;left=0;bottom=0;right=0;align=left;spacingLeft=6;overflow=hidden;whiteSpace=wrap;html=1;fontSize=16;" vertex="1" parent="c6OgAKPzxv5L_kpb_E-i-135">
          <mxGeometry x="30" width="410" height="30" as="geometry">
            <mxRectangle width="410" height="30" as="alternateBounds" />
          </mxGeometry>
        </mxCell>
        <mxCell id="c6OgAKPzxv5L_kpb_E-i-138" value="" style="shape=tableRow;horizontal=0;startSize=0;swimlaneHead=0;swimlaneBody=0;fillColor=none;collapsible=0;dropTarget=0;points=[[0,0.5],[1,0.5]];portConstraint=eastwest;top=1;left=0;right=0;bottom=0;fontSize=16;swimlaneFillColor=none;swimlaneLine=1;separatorColor=#000000;" vertex="1" parent="c6OgAKPzxv5L_kpb_E-i-104">
          <mxGeometry y="210" width="440" height="30" as="geometry" />
        </mxCell>
        <mxCell id="c6OgAKPzxv5L_kpb_E-i-139" value="" style="shape=partialRectangle;connectable=0;fillColor=none;top=0;left=0;bottom=0;right=0;editable=1;overflow=hidden;whiteSpace=wrap;html=1;fontSize=16;" vertex="1" parent="c6OgAKPzxv5L_kpb_E-i-138">
          <mxGeometry width="30" height="30" as="geometry">
            <mxRectangle width="30" height="30" as="alternateBounds" />
          </mxGeometry>
        </mxCell>
        <mxCell id="c6OgAKPzxv5L_kpb_E-i-140" value="WORKSPACE_USER_FK(userId)" style="shape=partialRectangle;connectable=0;fillColor=none;top=0;left=0;bottom=0;right=0;align=left;spacingLeft=6;overflow=hidden;whiteSpace=wrap;html=1;fontSize=16;" vertex="1" parent="c6OgAKPzxv5L_kpb_E-i-138">
          <mxGeometry x="30" width="410" height="30" as="geometry">
            <mxRectangle width="410" height="30" as="alternateBounds" />
          </mxGeometry>
        </mxCell>
        <mxCell id="c6OgAKPzxv5L_kpb_E-i-142" style="edgeStyle=none;curved=1;rounded=0;orthogonalLoop=1;jettySize=auto;html=1;entryX=-0.005;entryY=0.167;entryDx=0;entryDy=0;fontFamily=Helvetica;fontSize=16;fontColor=default;startSize=0;endSize=8;endArrow=ERmany;endFill=0;exitX=1;exitY=0.5;exitDx=0;exitDy=0;entryPerimeter=0;" edge="1" parent="1" source="hoUAYPuTTzx3VVZblNIO-42" target="c6OgAKPzxv5L_kpb_E-i-105">
          <mxGeometry relative="1" as="geometry" />
        </mxCell>
        <mxCell id="c6OgAKPzxv5L_kpb_E-i-180" value="List" style="shape=table;startSize=30;container=1;collapsible=1;childLayout=tableLayout;fixedRows=1;rowLines=0;fontStyle=1;align=center;resizeLast=1;html=1;fontSize=16;" vertex="1" parent="1">
          <mxGeometry x="-519" y="320" width="419" height="360" as="geometry" />
        </mxCell>
        <mxCell id="c6OgAKPzxv5L_kpb_E-i-181" value="" style="shape=tableRow;horizontal=0;startSize=0;swimlaneHead=0;swimlaneBody=0;fillColor=none;collapsible=0;dropTarget=0;points=[[0,0.5],[1,0.5]];portConstraint=eastwest;top=0;left=0;right=0;bottom=1;fontSize=16;" vertex="1" parent="c6OgAKPzxv5L_kpb_E-i-180">
          <mxGeometry y="30" width="419" height="30" as="geometry" />
        </mxCell>
        <mxCell id="c6OgAKPzxv5L_kpb_E-i-182" value="PK" style="shape=partialRectangle;connectable=0;fillColor=none;top=0;left=0;bottom=0;right=0;fontStyle=1;overflow=hidden;whiteSpace=wrap;html=1;fontSize=16;" vertex="1" parent="c6OgAKPzxv5L_kpb_E-i-181">
          <mxGeometry width="30" height="30" as="geometry">
            <mxRectangle width="30" height="30" as="alternateBounds" />
          </mxGeometry>
        </mxCell>
        <mxCell id="c6OgAKPzxv5L_kpb_E-i-183" value="id&lt;span style=&quot;white-space: pre;&quot;&gt;&#x9;&lt;/span&gt;&lt;span style=&quot;white-space: pre;&quot;&gt;&#x9;&lt;/span&gt;&lt;span style=&quot;white-space: pre;&quot;&gt;&#x9;&lt;/span&gt;&lt;span style=&quot;white-space: pre;&quot;&gt;&#x9;&lt;/span&gt;UUID" style="shape=partialRectangle;connectable=0;fillColor=none;top=0;left=0;bottom=0;right=0;align=left;spacingLeft=6;fontStyle=5;overflow=hidden;whiteSpace=wrap;html=1;fontSize=16;" vertex="1" parent="c6OgAKPzxv5L_kpb_E-i-181">
          <mxGeometry x="30" width="389" height="30" as="geometry">
            <mxRectangle width="389" height="30" as="alternateBounds" />
          </mxGeometry>
        </mxCell>
        <mxCell id="c6OgAKPzxv5L_kpb_E-i-184" value="" style="shape=tableRow;horizontal=0;startSize=0;swimlaneHead=0;swimlaneBody=0;fillColor=none;collapsible=0;dropTarget=0;points=[[0,0.5],[1,0.5]];portConstraint=eastwest;top=0;left=0;right=0;bottom=0;fontSize=16;" vertex="1" parent="c6OgAKPzxv5L_kpb_E-i-180">
          <mxGeometry y="60" width="419" height="30" as="geometry" />
        </mxCell>
        <mxCell id="c6OgAKPzxv5L_kpb_E-i-185" value="" style="shape=partialRectangle;connectable=0;fillColor=none;top=0;left=0;bottom=0;right=0;editable=1;overflow=hidden;whiteSpace=wrap;html=1;fontSize=16;" vertex="1" parent="c6OgAKPzxv5L_kpb_E-i-184">
          <mxGeometry width="30" height="30" as="geometry">
            <mxRectangle width="30" height="30" as="alternateBounds" />
          </mxGeometry>
        </mxCell>
        <mxCell id="c6OgAKPzxv5L_kpb_E-i-186" value="name&lt;span style=&quot;&quot;&gt;&lt;span style=&quot;white-space: pre;&quot;&gt;&amp;nbsp;&amp;nbsp;&amp;nbsp;&amp;nbsp;&lt;/span&gt;&lt;/span&gt;&lt;span style=&quot;&quot;&gt;&lt;span style=&quot;white-space: pre;&quot;&gt;&amp;nbsp;&amp;nbsp;&amp;nbsp;&amp;nbsp;&lt;/span&gt;&lt;span style=&quot;&quot;&gt;&lt;span style=&quot;white-space: pre;&quot;&gt;&amp;nbsp;&amp;nbsp;&amp;nbsp;&amp;nbsp;&lt;span style=&quot;white-space: pre;&quot;&gt;&#x9;&lt;span style=&quot;white-space: pre;&quot;&gt;&#x9;&lt;/span&gt;&lt;/span&gt;&lt;/span&gt;&lt;/span&gt;&lt;/span&gt;VARCHAR(255)&amp;nbsp;NOT NULL" style="shape=partialRectangle;connectable=0;fillColor=none;top=0;left=0;bottom=0;right=0;align=left;spacingLeft=6;overflow=hidden;whiteSpace=wrap;html=1;fontSize=16;" vertex="1" parent="c6OgAKPzxv5L_kpb_E-i-184">
          <mxGeometry x="30" width="389" height="30" as="geometry">
            <mxRectangle width="389" height="30" as="alternateBounds" />
          </mxGeometry>
        </mxCell>
        <mxCell id="c6OgAKPzxv5L_kpb_E-i-187" value="" style="shape=tableRow;horizontal=0;startSize=0;swimlaneHead=0;swimlaneBody=0;fillColor=none;collapsible=0;dropTarget=0;points=[[0,0.5],[1,0.5]];portConstraint=eastwest;top=0;left=0;right=0;bottom=0;fontSize=16;" vertex="1" parent="c6OgAKPzxv5L_kpb_E-i-180">
          <mxGeometry y="90" width="419" height="30" as="geometry" />
        </mxCell>
        <mxCell id="c6OgAKPzxv5L_kpb_E-i-188" value="" style="shape=partialRectangle;connectable=0;fillColor=none;top=0;left=0;bottom=0;right=0;editable=1;overflow=hidden;whiteSpace=wrap;html=1;fontSize=16;" vertex="1" parent="c6OgAKPzxv5L_kpb_E-i-187">
          <mxGeometry width="30" height="30" as="geometry">
            <mxRectangle width="30" height="30" as="alternateBounds" />
          </mxGeometry>
        </mxCell>
        <mxCell id="c6OgAKPzxv5L_kpb_E-i-189" value="position&amp;nbsp;&lt;span style=&quot;border-color: var(--border-color);&quot;&gt;&lt;span style=&quot;&quot;&gt;&amp;nbsp;&amp;nbsp;&amp;nbsp;&amp;nbsp;&lt;span style=&quot;&quot;&gt;&lt;span style=&quot;white-space: pre;&quot;&gt;&amp;nbsp;&amp;nbsp;&amp;nbsp;&amp;nbsp;&lt;/span&gt;&lt;span style=&quot;&quot;&gt;&lt;span style=&quot;white-space: pre;&quot;&gt;&amp;nbsp;&amp;nbsp;&amp;nbsp;&amp;nbsp;&lt;span style=&quot;white-space: pre;&quot;&gt;&#x9;&lt;/span&gt;&lt;/span&gt;&lt;/span&gt;&lt;/span&gt;&lt;/span&gt;&lt;/span&gt;INT NOT NULL" style="shape=partialRectangle;connectable=0;fillColor=none;top=0;left=0;bottom=0;right=0;align=left;spacingLeft=6;overflow=hidden;whiteSpace=wrap;html=1;fontSize=16;" vertex="1" parent="c6OgAKPzxv5L_kpb_E-i-187">
          <mxGeometry x="30" width="389" height="30" as="geometry">
            <mxRectangle width="389" height="30" as="alternateBounds" />
          </mxGeometry>
        </mxCell>
        <mxCell id="c6OgAKPzxv5L_kpb_E-i-199" value="" style="shape=tableRow;horizontal=0;startSize=0;swimlaneHead=0;swimlaneBody=0;fillColor=none;collapsible=0;dropTarget=0;points=[[0,0.5],[1,0.5]];portConstraint=eastwest;top=0;left=0;right=0;bottom=0;fontSize=16;" vertex="1" parent="c6OgAKPzxv5L_kpb_E-i-180">
          <mxGeometry y="120" width="419" height="30" as="geometry" />
        </mxCell>
        <mxCell id="c6OgAKPzxv5L_kpb_E-i-200" value="" style="shape=partialRectangle;connectable=0;fillColor=none;top=0;left=0;bottom=0;right=0;editable=1;overflow=hidden;whiteSpace=wrap;html=1;fontSize=16;" vertex="1" parent="c6OgAKPzxv5L_kpb_E-i-199">
          <mxGeometry width="30" height="30" as="geometry">
            <mxRectangle width="30" height="30" as="alternateBounds" />
          </mxGeometry>
        </mxCell>
        <mxCell id="c6OgAKPzxv5L_kpb_E-i-201" value="currency&lt;span style=&quot;&quot;&gt;&lt;span style=&quot;white-space: pre;&quot;&gt;&amp;nbsp;&amp;nbsp;&amp;nbsp;&amp;nbsp;&lt;span style=&quot;white-space: pre;&quot;&gt;&#x9;&lt;span style=&quot;white-space: pre;&quot;&gt;&#x9;&lt;/span&gt;&lt;/span&gt;&lt;/span&gt;&lt;/span&gt;VARCHAR(3)" style="shape=partialRectangle;connectable=0;fillColor=none;top=0;left=0;bottom=0;right=0;align=left;spacingLeft=6;overflow=hidden;whiteSpace=wrap;html=1;fontSize=16;" vertex="1" parent="c6OgAKPzxv5L_kpb_E-i-199">
          <mxGeometry x="30" width="389" height="30" as="geometry">
            <mxRectangle width="389" height="30" as="alternateBounds" />
          </mxGeometry>
        </mxCell>
        <mxCell id="c6OgAKPzxv5L_kpb_E-i-190" value="" style="shape=tableRow;horizontal=0;startSize=0;swimlaneHead=0;swimlaneBody=0;fillColor=none;collapsible=0;dropTarget=0;points=[[0,0.5],[1,0.5]];portConstraint=eastwest;top=0;left=0;right=0;bottom=0;fontSize=16;" vertex="1" parent="c6OgAKPzxv5L_kpb_E-i-180">
          <mxGeometry y="150" width="419" height="30" as="geometry" />
        </mxCell>
        <mxCell id="c6OgAKPzxv5L_kpb_E-i-191" value="" style="shape=partialRectangle;connectable=0;fillColor=none;top=0;left=0;bottom=0;right=0;editable=1;overflow=hidden;whiteSpace=wrap;html=1;fontSize=16;" vertex="1" parent="c6OgAKPzxv5L_kpb_E-i-190">
          <mxGeometry width="30" height="30" as="geometry">
            <mxRectangle width="30" height="30" as="alternateBounds" />
          </mxGeometry>
        </mxCell>
        <mxCell id="c6OgAKPzxv5L_kpb_E-i-192" value="total&lt;span style=&quot;&quot;&gt;&lt;span style=&quot;white-space: pre;&quot;&gt;&amp;nbsp;&amp;nbsp;&amp;nbsp;&amp;nbsp;&lt;/span&gt;&lt;/span&gt;&lt;span style=&quot;&quot;&gt;&lt;span style=&quot;white-space: pre;&quot;&gt;&amp;nbsp;&amp;nbsp;&amp;nbsp;&amp;nbsp;&lt;/span&gt;&lt;span style=&quot;&quot;&gt;&lt;span style=&quot;white-space: pre;&quot;&gt;&amp;nbsp;&amp;nbsp;&amp;nbsp;&amp;nbsp;&lt;span style=&quot;white-space: pre;&quot;&gt;&#x9;&lt;/span&gt;&lt;span style=&quot;white-space: pre;&quot;&gt;&#x9;&lt;/span&gt;&lt;/span&gt;&lt;/span&gt;&lt;/span&gt;VARCHAR(255)" style="shape=partialRectangle;connectable=0;fillColor=none;top=0;left=0;bottom=0;right=0;align=left;spacingLeft=6;overflow=hidden;whiteSpace=wrap;html=1;fontSize=16;" vertex="1" parent="c6OgAKPzxv5L_kpb_E-i-190">
          <mxGeometry x="30" width="389" height="30" as="geometry">
            <mxRectangle width="389" height="30" as="alternateBounds" />
          </mxGeometry>
        </mxCell>
        <mxCell id="c6OgAKPzxv5L_kpb_E-i-193" value="" style="shape=tableRow;horizontal=0;startSize=0;swimlaneHead=0;swimlaneBody=0;fillColor=none;collapsible=0;dropTarget=0;points=[[0,0.5],[1,0.5]];portConstraint=eastwest;top=0;left=0;right=0;bottom=0;fontSize=16;" vertex="1" parent="c6OgAKPzxv5L_kpb_E-i-180">
          <mxGeometry y="180" width="419" height="30" as="geometry" />
        </mxCell>
        <mxCell id="c6OgAKPzxv5L_kpb_E-i-194" value="" style="shape=partialRectangle;connectable=0;fillColor=none;top=0;left=0;bottom=0;right=0;editable=1;overflow=hidden;whiteSpace=wrap;html=1;fontSize=16;" vertex="1" parent="c6OgAKPzxv5L_kpb_E-i-193">
          <mxGeometry width="30" height="30" as="geometry">
            <mxRectangle width="30" height="30" as="alternateBounds" />
          </mxGeometry>
        </mxCell>
        <mxCell id="c6OgAKPzxv5L_kpb_E-i-195" value="partialSum&amp;nbsp;&lt;span style=&quot;border-color: var(--border-color);&quot;&gt;&lt;span style=&quot;&quot;&gt;&amp;nbsp;&amp;nbsp;&amp;nbsp;&amp;nbsp;&lt;span style=&quot;&quot;&gt;&lt;span style=&quot;white-space: pre;&quot;&gt;&amp;nbsp;&amp;nbsp;&amp;nbsp;&amp;nbsp;&lt;/span&gt;&lt;span style=&quot;&quot;&gt;&lt;span style=&quot;white-space: pre;&quot;&gt;&amp;nbsp;&amp;nbsp;&amp;nbsp;&amp;nbsp;&lt;span style=&quot;white-space: pre;&quot;&gt;&#x9;&lt;/span&gt;&lt;/span&gt;&lt;/span&gt;&lt;/span&gt;&lt;/span&gt;&lt;/span&gt;BOOLEAN" style="shape=partialRectangle;connectable=0;fillColor=none;top=0;left=0;bottom=0;right=0;align=left;spacingLeft=6;overflow=hidden;whiteSpace=wrap;html=1;fontSize=16;" vertex="1" parent="c6OgAKPzxv5L_kpb_E-i-193">
          <mxGeometry x="30" width="389" height="30" as="geometry">
            <mxRectangle width="389" height="30" as="alternateBounds" />
          </mxGeometry>
        </mxCell>
        <mxCell id="c6OgAKPzxv5L_kpb_E-i-196" value="" style="shape=tableRow;horizontal=0;startSize=0;swimlaneHead=0;swimlaneBody=0;fillColor=none;collapsible=0;dropTarget=0;points=[[0,0.5],[1,0.5]];portConstraint=eastwest;top=0;left=0;right=0;bottom=0;fontSize=16;" vertex="1" parent="c6OgAKPzxv5L_kpb_E-i-180">
          <mxGeometry y="210" width="419" height="30" as="geometry" />
        </mxCell>
        <mxCell id="c6OgAKPzxv5L_kpb_E-i-197" value="" style="shape=partialRectangle;connectable=0;fillColor=none;top=0;left=0;bottom=0;right=0;editable=1;overflow=hidden;whiteSpace=wrap;html=1;fontSize=16;" vertex="1" parent="c6OgAKPzxv5L_kpb_E-i-196">
          <mxGeometry width="30" height="30" as="geometry">
            <mxRectangle width="30" height="30" as="alternateBounds" />
          </mxGeometry>
        </mxCell>
        <mxCell id="c6OgAKPzxv5L_kpb_E-i-198" value="isArchived&lt;span style=&quot;&quot;&gt;&lt;span style=&quot;white-space: pre;&quot;&gt;&amp;nbsp;&amp;nbsp;&amp;nbsp;&amp;nbsp;&lt;span style=&quot;white-space: pre;&quot;&gt;&#x9;&lt;span style=&quot;white-space: pre;&quot;&gt;&#x9;&lt;/span&gt;B&lt;/span&gt;OOLEAN&lt;/span&gt;&lt;/span&gt;" style="shape=partialRectangle;connectable=0;fillColor=none;top=0;left=0;bottom=0;right=0;align=left;spacingLeft=6;overflow=hidden;whiteSpace=wrap;html=1;fontSize=16;" vertex="1" parent="c6OgAKPzxv5L_kpb_E-i-196">
          <mxGeometry x="30" width="389" height="30" as="geometry">
            <mxRectangle width="389" height="30" as="alternateBounds" />
          </mxGeometry>
        </mxCell>
        <mxCell id="c6OgAKPzxv5L_kpb_E-i-205" value="" style="shape=tableRow;horizontal=0;startSize=0;swimlaneHead=0;swimlaneBody=0;fillColor=none;collapsible=0;dropTarget=0;points=[[0,0.5],[1,0.5]];portConstraint=eastwest;top=0;left=0;right=0;bottom=0;fontSize=16;" vertex="1" parent="c6OgAKPzxv5L_kpb_E-i-180">
          <mxGeometry y="240" width="419" height="30" as="geometry" />
        </mxCell>
        <mxCell id="c6OgAKPzxv5L_kpb_E-i-206" value="" style="shape=partialRectangle;connectable=0;fillColor=none;top=0;left=0;bottom=0;right=0;editable=1;overflow=hidden;whiteSpace=wrap;html=1;fontSize=16;" vertex="1" parent="c6OgAKPzxv5L_kpb_E-i-205">
          <mxGeometry width="30" height="30" as="geometry">
            <mxRectangle width="30" height="30" as="alternateBounds" />
          </mxGeometry>
        </mxCell>
        <mxCell id="c6OgAKPzxv5L_kpb_E-i-207" value="createdAt&lt;span style=&quot;white-space: pre;&quot;&gt;&#x9;&lt;/span&gt;&lt;span style=&quot;white-space: pre;&quot;&gt;&#x9;&lt;span style=&quot;white-space: pre;&quot;&gt;&#x9;&lt;/span&gt;&lt;/span&gt;TIMESTAMPTZ&amp;nbsp; NOT NULL" style="shape=partialRectangle;connectable=0;fillColor=none;top=0;left=0;bottom=0;right=0;align=left;spacingLeft=6;overflow=hidden;whiteSpace=wrap;html=1;fontSize=16;" vertex="1" parent="c6OgAKPzxv5L_kpb_E-i-205">
          <mxGeometry x="30" width="389" height="30" as="geometry">
            <mxRectangle width="389" height="30" as="alternateBounds" />
          </mxGeometry>
        </mxCell>
        <mxCell id="c6OgAKPzxv5L_kpb_E-i-208" value="" style="shape=tableRow;horizontal=0;startSize=0;swimlaneHead=0;swimlaneBody=0;fillColor=none;collapsible=0;dropTarget=0;points=[[0,0.5],[1,0.5]];portConstraint=eastwest;top=0;left=0;right=0;bottom=0;fontSize=16;" vertex="1" parent="c6OgAKPzxv5L_kpb_E-i-180">
          <mxGeometry y="270" width="419" height="30" as="geometry" />
        </mxCell>
        <mxCell id="c6OgAKPzxv5L_kpb_E-i-209" value="" style="shape=partialRectangle;connectable=0;fillColor=none;top=0;left=0;bottom=0;right=0;editable=1;overflow=hidden;whiteSpace=wrap;html=1;fontSize=16;" vertex="1" parent="c6OgAKPzxv5L_kpb_E-i-208">
          <mxGeometry width="30" height="30" as="geometry">
            <mxRectangle width="30" height="30" as="alternateBounds" />
          </mxGeometry>
        </mxCell>
        <mxCell id="c6OgAKPzxv5L_kpb_E-i-210" value="updatedAt&lt;span style=&quot;&quot;&gt;&lt;span style=&quot;white-space: pre;&quot;&gt;&amp;nbsp;&amp;nbsp;&amp;nbsp;&amp;nbsp;&lt;/span&gt;&lt;/span&gt;&lt;span style=&quot;&quot;&gt;&lt;span style=&quot;white-space: pre;&quot;&gt;&amp;nbsp;&amp;nbsp;&amp;nbsp;&amp;nbsp;&lt;span style=&quot;white-space: pre;&quot;&gt;&#x9;&lt;/span&gt;&lt;/span&gt;&lt;/span&gt;TIMESTAMPTZ&amp;nbsp; NOT NULL" style="shape=partialRectangle;connectable=0;fillColor=none;top=0;left=0;bottom=0;right=0;align=left;spacingLeft=6;overflow=hidden;whiteSpace=wrap;html=1;fontSize=16;" vertex="1" parent="c6OgAKPzxv5L_kpb_E-i-208">
          <mxGeometry x="30" width="389" height="30" as="geometry">
            <mxRectangle width="389" height="30" as="alternateBounds" />
          </mxGeometry>
        </mxCell>
        <mxCell id="c6OgAKPzxv5L_kpb_E-i-211" value="" style="shape=tableRow;horizontal=0;startSize=0;swimlaneHead=0;swimlaneBody=0;fillColor=none;collapsible=0;dropTarget=0;points=[[0,0.5],[1,0.5]];portConstraint=eastwest;top=0;left=0;right=0;bottom=0;fontSize=16;strokeWidth=1;swimlaneLine=1;separatorColor=#000000;" vertex="1" parent="c6OgAKPzxv5L_kpb_E-i-180">
          <mxGeometry y="300" width="419" height="30" as="geometry" />
        </mxCell>
        <mxCell id="c6OgAKPzxv5L_kpb_E-i-212" value="" style="shape=partialRectangle;connectable=0;fillColor=none;top=0;left=0;bottom=0;right=0;editable=1;overflow=hidden;whiteSpace=wrap;html=1;fontSize=16;" vertex="1" parent="c6OgAKPzxv5L_kpb_E-i-211">
          <mxGeometry width="30" height="30" as="geometry">
            <mxRectangle width="30" height="30" as="alternateBounds" />
          </mxGeometry>
        </mxCell>
        <mxCell id="c6OgAKPzxv5L_kpb_E-i-213" value="workspaceId&lt;span style=&quot;white-space: pre;&quot;&gt;&#x9;&lt;span style=&quot;white-space: pre;&quot;&gt;&#x9;&lt;/span&gt;&lt;/span&gt;UUID NOT NULL&amp;nbsp;" style="shape=partialRectangle;connectable=0;fillColor=none;top=0;left=0;bottom=0;right=0;align=left;spacingLeft=6;overflow=hidden;whiteSpace=wrap;html=1;fontSize=16;" vertex="1" parent="c6OgAKPzxv5L_kpb_E-i-211">
          <mxGeometry x="30" width="389" height="30" as="geometry">
            <mxRectangle width="389" height="30" as="alternateBounds" />
          </mxGeometry>
        </mxCell>
        <mxCell id="c6OgAKPzxv5L_kpb_E-i-214" value="" style="shape=tableRow;horizontal=0;startSize=0;swimlaneHead=0;swimlaneBody=0;fillColor=none;collapsible=0;dropTarget=0;points=[[0,0.5],[1,0.5]];portConstraint=eastwest;top=1;left=0;right=0;bottom=0;fontSize=16;swimlaneFillColor=none;swimlaneLine=1;separatorColor=#000000;" vertex="1" parent="c6OgAKPzxv5L_kpb_E-i-180">
          <mxGeometry y="330" width="419" height="30" as="geometry" />
        </mxCell>
        <mxCell id="c6OgAKPzxv5L_kpb_E-i-215" value="" style="shape=partialRectangle;connectable=0;fillColor=none;top=0;left=0;bottom=0;right=0;editable=1;overflow=hidden;whiteSpace=wrap;html=1;fontSize=16;" vertex="1" parent="c6OgAKPzxv5L_kpb_E-i-214">
          <mxGeometry width="30" height="30" as="geometry">
            <mxRectangle width="30" height="30" as="alternateBounds" />
          </mxGeometry>
        </mxCell>
        <mxCell id="c6OgAKPzxv5L_kpb_E-i-216" value="LIST_WORKSPACE_FK(workspaceId)" style="shape=partialRectangle;connectable=0;fillColor=none;top=0;left=0;bottom=0;right=0;align=left;spacingLeft=6;overflow=hidden;whiteSpace=wrap;html=1;fontSize=16;" vertex="1" parent="c6OgAKPzxv5L_kpb_E-i-214">
          <mxGeometry x="30" width="389" height="30" as="geometry">
            <mxRectangle width="389" height="30" as="alternateBounds" />
          </mxGeometry>
        </mxCell>
        <mxCell id="c6OgAKPzxv5L_kpb_E-i-219" style="edgeStyle=orthogonalEdgeStyle;rounded=0;orthogonalLoop=1;jettySize=auto;html=1;entryX=1;entryY=0.5;entryDx=0;entryDy=0;fontFamily=Helvetica;fontSize=16;fontColor=default;startSize=0;endSize=8;exitX=0.004;exitY=0.05;exitDx=0;exitDy=0;exitPerimeter=0;endArrow=ERmany;endFill=0;" edge="1" parent="1" source="c6OgAKPzxv5L_kpb_E-i-129" target="c6OgAKPzxv5L_kpb_E-i-190">
          <mxGeometry relative="1" as="geometry">
            <mxPoint x="30" y="260" as="sourcePoint" />
          </mxGeometry>
        </mxCell>
        <mxCell id="c6OgAKPzxv5L_kpb_E-i-220" value="Item" style="shape=table;startSize=30;container=1;collapsible=1;childLayout=tableLayout;fixedRows=1;rowLines=0;fontStyle=1;align=center;resizeLast=1;html=1;fontSize=16;" vertex="1" parent="1">
          <mxGeometry x="-1098" y="320" width="419" height="330" as="geometry" />
        </mxCell>
        <mxCell id="c6OgAKPzxv5L_kpb_E-i-221" value="" style="shape=tableRow;horizontal=0;startSize=0;swimlaneHead=0;swimlaneBody=0;fillColor=none;collapsible=0;dropTarget=0;points=[[0,0.5],[1,0.5]];portConstraint=eastwest;top=0;left=0;right=0;bottom=1;fontSize=16;" vertex="1" parent="c6OgAKPzxv5L_kpb_E-i-220">
          <mxGeometry y="30" width="419" height="30" as="geometry" />
        </mxCell>
        <mxCell id="c6OgAKPzxv5L_kpb_E-i-222" value="PK" style="shape=partialRectangle;connectable=0;fillColor=none;top=0;left=0;bottom=0;right=0;fontStyle=1;overflow=hidden;whiteSpace=wrap;html=1;fontSize=16;" vertex="1" parent="c6OgAKPzxv5L_kpb_E-i-221">
          <mxGeometry width="30" height="30" as="geometry">
            <mxRectangle width="30" height="30" as="alternateBounds" />
          </mxGeometry>
        </mxCell>
        <mxCell id="c6OgAKPzxv5L_kpb_E-i-223" value="id&lt;span style=&quot;white-space: pre;&quot;&gt;&#x9;&lt;/span&gt;&lt;span style=&quot;white-space: pre;&quot;&gt;&#x9;&lt;/span&gt;&lt;span style=&quot;white-space: pre;&quot;&gt;&#x9;&lt;/span&gt;&lt;span style=&quot;white-space: pre;&quot;&gt;&#x9;&lt;/span&gt;UUID" style="shape=partialRectangle;connectable=0;fillColor=none;top=0;left=0;bottom=0;right=0;align=left;spacingLeft=6;fontStyle=5;overflow=hidden;whiteSpace=wrap;html=1;fontSize=16;" vertex="1" parent="c6OgAKPzxv5L_kpb_E-i-221">
          <mxGeometry x="30" width="389" height="30" as="geometry">
            <mxRectangle width="389" height="30" as="alternateBounds" />
          </mxGeometry>
        </mxCell>
        <mxCell id="c6OgAKPzxv5L_kpb_E-i-224" value="" style="shape=tableRow;horizontal=0;startSize=0;swimlaneHead=0;swimlaneBody=0;fillColor=none;collapsible=0;dropTarget=0;points=[[0,0.5],[1,0.5]];portConstraint=eastwest;top=0;left=0;right=0;bottom=0;fontSize=16;" vertex="1" parent="c6OgAKPzxv5L_kpb_E-i-220">
          <mxGeometry y="60" width="419" height="30" as="geometry" />
        </mxCell>
        <mxCell id="c6OgAKPzxv5L_kpb_E-i-225" value="" style="shape=partialRectangle;connectable=0;fillColor=none;top=0;left=0;bottom=0;right=0;editable=1;overflow=hidden;whiteSpace=wrap;html=1;fontSize=16;" vertex="1" parent="c6OgAKPzxv5L_kpb_E-i-224">
          <mxGeometry width="30" height="30" as="geometry">
            <mxRectangle width="30" height="30" as="alternateBounds" />
          </mxGeometry>
        </mxCell>
        <mxCell id="c6OgAKPzxv5L_kpb_E-i-226" value="name&lt;span style=&quot;&quot;&gt;&lt;span style=&quot;white-space: pre;&quot;&gt;&amp;nbsp;&amp;nbsp;&amp;nbsp;&amp;nbsp;&lt;/span&gt;&lt;/span&gt;&lt;span style=&quot;&quot;&gt;&lt;span style=&quot;white-space: pre;&quot;&gt;&amp;nbsp;&amp;nbsp;&amp;nbsp;&amp;nbsp;&lt;/span&gt;&lt;span style=&quot;&quot;&gt;&lt;span style=&quot;white-space: pre;&quot;&gt;&amp;nbsp;&amp;nbsp;&amp;nbsp;&amp;nbsp;&lt;span style=&quot;white-space: pre;&quot;&gt;&#x9;&lt;span style=&quot;white-space: pre;&quot;&gt;&#x9;&lt;/span&gt;&lt;/span&gt;&lt;/span&gt;&lt;/span&gt;&lt;/span&gt;VARCHAR(255)&amp;nbsp;NOT NULL" style="shape=partialRectangle;connectable=0;fillColor=none;top=0;left=0;bottom=0;right=0;align=left;spacingLeft=6;overflow=hidden;whiteSpace=wrap;html=1;fontSize=16;" vertex="1" parent="c6OgAKPzxv5L_kpb_E-i-224">
          <mxGeometry x="30" width="389" height="30" as="geometry">
            <mxRectangle width="389" height="30" as="alternateBounds" />
          </mxGeometry>
        </mxCell>
        <mxCell id="c6OgAKPzxv5L_kpb_E-i-227" value="" style="shape=tableRow;horizontal=0;startSize=0;swimlaneHead=0;swimlaneBody=0;fillColor=none;collapsible=0;dropTarget=0;points=[[0,0.5],[1,0.5]];portConstraint=eastwest;top=0;left=0;right=0;bottom=0;fontSize=16;" vertex="1" parent="c6OgAKPzxv5L_kpb_E-i-220">
          <mxGeometry y="90" width="419" height="30" as="geometry" />
        </mxCell>
        <mxCell id="c6OgAKPzxv5L_kpb_E-i-228" value="" style="shape=partialRectangle;connectable=0;fillColor=none;top=0;left=0;bottom=0;right=0;editable=1;overflow=hidden;whiteSpace=wrap;html=1;fontSize=16;" vertex="1" parent="c6OgAKPzxv5L_kpb_E-i-227">
          <mxGeometry width="30" height="30" as="geometry">
            <mxRectangle width="30" height="30" as="alternateBounds" />
          </mxGeometry>
        </mxCell>
        <mxCell id="c6OgAKPzxv5L_kpb_E-i-229" value="position&amp;nbsp;&lt;span style=&quot;border-color: var(--border-color);&quot;&gt;&lt;span style=&quot;&quot;&gt;&amp;nbsp;&amp;nbsp;&amp;nbsp;&amp;nbsp;&lt;span style=&quot;&quot;&gt;&lt;span style=&quot;white-space: pre;&quot;&gt;&amp;nbsp;&amp;nbsp;&amp;nbsp;&amp;nbsp;&lt;/span&gt;&lt;span style=&quot;&quot;&gt;&lt;span style=&quot;white-space: pre;&quot;&gt;&amp;nbsp;&amp;nbsp;&amp;nbsp;&amp;nbsp;&lt;span style=&quot;white-space: pre;&quot;&gt;&#x9;&lt;/span&gt;&lt;/span&gt;&lt;/span&gt;&lt;/span&gt;&lt;/span&gt;&lt;/span&gt;INT NOT NULL" style="shape=partialRectangle;connectable=0;fillColor=none;top=0;left=0;bottom=0;right=0;align=left;spacingLeft=6;overflow=hidden;whiteSpace=wrap;html=1;fontSize=16;" vertex="1" parent="c6OgAKPzxv5L_kpb_E-i-227">
          <mxGeometry x="30" width="389" height="30" as="geometry">
            <mxRectangle width="389" height="30" as="alternateBounds" />
          </mxGeometry>
        </mxCell>
        <mxCell id="c6OgAKPzxv5L_kpb_E-i-230" value="" style="shape=tableRow;horizontal=0;startSize=0;swimlaneHead=0;swimlaneBody=0;fillColor=none;collapsible=0;dropTarget=0;points=[[0,0.5],[1,0.5]];portConstraint=eastwest;top=0;left=0;right=0;bottom=0;fontSize=16;" vertex="1" parent="c6OgAKPzxv5L_kpb_E-i-220">
          <mxGeometry y="120" width="419" height="30" as="geometry" />
        </mxCell>
        <mxCell id="c6OgAKPzxv5L_kpb_E-i-231" value="" style="shape=partialRectangle;connectable=0;fillColor=none;top=0;left=0;bottom=0;right=0;editable=1;overflow=hidden;whiteSpace=wrap;html=1;fontSize=16;" vertex="1" parent="c6OgAKPzxv5L_kpb_E-i-230">
          <mxGeometry width="30" height="30" as="geometry">
            <mxRectangle width="30" height="30" as="alternateBounds" />
          </mxGeometry>
        </mxCell>
        <mxCell id="c6OgAKPzxv5L_kpb_E-i-232" value="price&lt;span style=&quot;&quot;&gt;&lt;span style=&quot;white-space: pre;&quot;&gt;&amp;nbsp;&amp;nbsp;&amp;nbsp;&amp;nbsp;&lt;span style=&quot;white-space: pre;&quot;&gt;&#x9;&lt;span style=&quot;white-space: pre;&quot;&gt;&#x9;&lt;span style=&quot;white-space: pre;&quot;&gt;&#x9;&lt;/span&gt;&lt;/span&gt;&lt;/span&gt;&lt;/span&gt;&lt;/span&gt;VARCHAR(255)" style="shape=partialRectangle;connectable=0;fillColor=none;top=0;left=0;bottom=0;right=0;align=left;spacingLeft=6;overflow=hidden;whiteSpace=wrap;html=1;fontSize=16;" vertex="1" parent="c6OgAKPzxv5L_kpb_E-i-230">
          <mxGeometry x="30" width="389" height="30" as="geometry">
            <mxRectangle width="389" height="30" as="alternateBounds" />
          </mxGeometry>
        </mxCell>
        <mxCell id="c6OgAKPzxv5L_kpb_E-i-233" value="" style="shape=tableRow;horizontal=0;startSize=0;swimlaneHead=0;swimlaneBody=0;fillColor=none;collapsible=0;dropTarget=0;points=[[0,0.5],[1,0.5]];portConstraint=eastwest;top=0;left=0;right=0;bottom=0;fontSize=16;" vertex="1" parent="c6OgAKPzxv5L_kpb_E-i-220">
          <mxGeometry y="150" width="419" height="30" as="geometry" />
        </mxCell>
        <mxCell id="c6OgAKPzxv5L_kpb_E-i-234" value="" style="shape=partialRectangle;connectable=0;fillColor=none;top=0;left=0;bottom=0;right=0;editable=1;overflow=hidden;whiteSpace=wrap;html=1;fontSize=16;" vertex="1" parent="c6OgAKPzxv5L_kpb_E-i-233">
          <mxGeometry width="30" height="30" as="geometry">
            <mxRectangle width="30" height="30" as="alternateBounds" />
          </mxGeometry>
        </mxCell>
        <mxCell id="c6OgAKPzxv5L_kpb_E-i-235" value="quantity&lt;span style=&quot;&quot;&gt;&lt;span style=&quot;white-space: pre;&quot;&gt;&amp;nbsp;&amp;nbsp;&amp;nbsp;&amp;nbsp;&lt;/span&gt;&lt;/span&gt;&lt;span style=&quot;&quot;&gt;&lt;span style=&quot;white-space: pre;&quot;&gt;&amp;nbsp;&amp;nbsp;&amp;nbsp;&amp;nbsp;&lt;/span&gt;&lt;span style=&quot;&quot;&gt;&lt;span style=&quot;white-space: pre;&quot;&gt;&amp;nbsp;&amp;nbsp;&amp;nbsp;&amp;nbsp;&lt;span style=&quot;white-space: pre;&quot;&gt;&#x9;&lt;/span&gt;&lt;/span&gt;&lt;/span&gt;&lt;/span&gt;INT NOT NULL" style="shape=partialRectangle;connectable=0;fillColor=none;top=0;left=0;bottom=0;right=0;align=left;spacingLeft=6;overflow=hidden;whiteSpace=wrap;html=1;fontSize=16;" vertex="1" parent="c6OgAKPzxv5L_kpb_E-i-233">
          <mxGeometry x="30" width="389" height="30" as="geometry">
            <mxRectangle width="389" height="30" as="alternateBounds" />
          </mxGeometry>
        </mxCell>
        <mxCell id="c6OgAKPzxv5L_kpb_E-i-236" value="" style="shape=tableRow;horizontal=0;startSize=0;swimlaneHead=0;swimlaneBody=0;fillColor=none;collapsible=0;dropTarget=0;points=[[0,0.5],[1,0.5]];portConstraint=eastwest;top=0;left=0;right=0;bottom=0;fontSize=16;" vertex="1" parent="c6OgAKPzxv5L_kpb_E-i-220">
          <mxGeometry y="180" width="419" height="30" as="geometry" />
        </mxCell>
        <mxCell id="c6OgAKPzxv5L_kpb_E-i-237" value="" style="shape=partialRectangle;connectable=0;fillColor=none;top=0;left=0;bottom=0;right=0;editable=1;overflow=hidden;whiteSpace=wrap;html=1;fontSize=16;" vertex="1" parent="c6OgAKPzxv5L_kpb_E-i-236">
          <mxGeometry width="30" height="30" as="geometry">
            <mxRectangle width="30" height="30" as="alternateBounds" />
          </mxGeometry>
        </mxCell>
        <mxCell id="c6OgAKPzxv5L_kpb_E-i-238" value="inTrash&amp;nbsp;&lt;span style=&quot;border-color: var(--border-color);&quot;&gt;&lt;span style=&quot;&quot;&gt;&amp;nbsp;&amp;nbsp;&amp;nbsp;&amp;nbsp;&lt;span style=&quot;&quot;&gt;&lt;span style=&quot;white-space: pre;&quot;&gt;&amp;nbsp;&amp;nbsp;&amp;nbsp;&amp;nbsp;&lt;/span&gt;&lt;span style=&quot;&quot;&gt;&lt;span style=&quot;white-space: pre;&quot;&gt;&amp;nbsp;&amp;nbsp;&amp;nbsp;&amp;nbsp;&lt;span style=&quot;white-space: pre;&quot;&gt;&#x9;&lt;/span&gt;&lt;/span&gt;&lt;/span&gt;&lt;/span&gt;&lt;/span&gt;&lt;/span&gt;BOOLEAN" style="shape=partialRectangle;connectable=0;fillColor=none;top=0;left=0;bottom=0;right=0;align=left;spacingLeft=6;overflow=hidden;whiteSpace=wrap;html=1;fontSize=16;" vertex="1" parent="c6OgAKPzxv5L_kpb_E-i-236">
          <mxGeometry x="30" width="389" height="30" as="geometry">
            <mxRectangle width="389" height="30" as="alternateBounds" />
          </mxGeometry>
        </mxCell>
        <mxCell id="c6OgAKPzxv5L_kpb_E-i-242" value="" style="shape=tableRow;horizontal=0;startSize=0;swimlaneHead=0;swimlaneBody=0;fillColor=none;collapsible=0;dropTarget=0;points=[[0,0.5],[1,0.5]];portConstraint=eastwest;top=0;left=0;right=0;bottom=0;fontSize=16;" vertex="1" parent="c6OgAKPzxv5L_kpb_E-i-220">
          <mxGeometry y="210" width="419" height="30" as="geometry" />
        </mxCell>
        <mxCell id="c6OgAKPzxv5L_kpb_E-i-243" value="" style="shape=partialRectangle;connectable=0;fillColor=none;top=0;left=0;bottom=0;right=0;editable=1;overflow=hidden;whiteSpace=wrap;html=1;fontSize=16;" vertex="1" parent="c6OgAKPzxv5L_kpb_E-i-242">
          <mxGeometry width="30" height="30" as="geometry">
            <mxRectangle width="30" height="30" as="alternateBounds" />
          </mxGeometry>
        </mxCell>
        <mxCell id="c6OgAKPzxv5L_kpb_E-i-244" value="createdAt&lt;span style=&quot;white-space: pre;&quot;&gt;&#x9;&lt;/span&gt;&lt;span style=&quot;white-space: pre;&quot;&gt;&#x9;&lt;span style=&quot;white-space: pre;&quot;&gt;&#x9;&lt;/span&gt;&lt;/span&gt;TIMESTAMPTZ&amp;nbsp; NOT NULL" style="shape=partialRectangle;connectable=0;fillColor=none;top=0;left=0;bottom=0;right=0;align=left;spacingLeft=6;overflow=hidden;whiteSpace=wrap;html=1;fontSize=16;" vertex="1" parent="c6OgAKPzxv5L_kpb_E-i-242">
          <mxGeometry x="30" width="389" height="30" as="geometry">
            <mxRectangle width="389" height="30" as="alternateBounds" />
          </mxGeometry>
        </mxCell>
        <mxCell id="c6OgAKPzxv5L_kpb_E-i-245" value="" style="shape=tableRow;horizontal=0;startSize=0;swimlaneHead=0;swimlaneBody=0;fillColor=none;collapsible=0;dropTarget=0;points=[[0,0.5],[1,0.5]];portConstraint=eastwest;top=0;left=0;right=0;bottom=0;fontSize=16;" vertex="1" parent="c6OgAKPzxv5L_kpb_E-i-220">
          <mxGeometry y="240" width="419" height="30" as="geometry" />
        </mxCell>
        <mxCell id="c6OgAKPzxv5L_kpb_E-i-246" value="" style="shape=partialRectangle;connectable=0;fillColor=none;top=0;left=0;bottom=0;right=0;editable=1;overflow=hidden;whiteSpace=wrap;html=1;fontSize=16;" vertex="1" parent="c6OgAKPzxv5L_kpb_E-i-245">
          <mxGeometry width="30" height="30" as="geometry">
            <mxRectangle width="30" height="30" as="alternateBounds" />
          </mxGeometry>
        </mxCell>
        <mxCell id="c6OgAKPzxv5L_kpb_E-i-247" value="updatedAt&lt;span style=&quot;&quot;&gt;&lt;span style=&quot;white-space: pre;&quot;&gt;&amp;nbsp;&amp;nbsp;&amp;nbsp;&amp;nbsp;&lt;/span&gt;&lt;/span&gt;&lt;span style=&quot;&quot;&gt;&lt;span style=&quot;white-space: pre;&quot;&gt;&amp;nbsp;&amp;nbsp;&amp;nbsp;&amp;nbsp;&lt;span style=&quot;white-space: pre;&quot;&gt;&#x9;&lt;/span&gt;&lt;/span&gt;&lt;/span&gt;TIMESTAMPTZ&amp;nbsp; NOT NULL" style="shape=partialRectangle;connectable=0;fillColor=none;top=0;left=0;bottom=0;right=0;align=left;spacingLeft=6;overflow=hidden;whiteSpace=wrap;html=1;fontSize=16;" vertex="1" parent="c6OgAKPzxv5L_kpb_E-i-245">
          <mxGeometry x="30" width="389" height="30" as="geometry">
            <mxRectangle width="389" height="30" as="alternateBounds" />
          </mxGeometry>
        </mxCell>
        <mxCell id="c6OgAKPzxv5L_kpb_E-i-248" value="" style="shape=tableRow;horizontal=0;startSize=0;swimlaneHead=0;swimlaneBody=0;fillColor=none;collapsible=0;dropTarget=0;points=[[0,0.5],[1,0.5]];portConstraint=eastwest;top=0;left=0;right=0;bottom=0;fontSize=16;strokeWidth=1;swimlaneLine=1;separatorColor=#000000;" vertex="1" parent="c6OgAKPzxv5L_kpb_E-i-220">
          <mxGeometry y="270" width="419" height="30" as="geometry" />
        </mxCell>
        <mxCell id="c6OgAKPzxv5L_kpb_E-i-249" value="" style="shape=partialRectangle;connectable=0;fillColor=none;top=0;left=0;bottom=0;right=0;editable=1;overflow=hidden;whiteSpace=wrap;html=1;fontSize=16;" vertex="1" parent="c6OgAKPzxv5L_kpb_E-i-248">
          <mxGeometry width="30" height="30" as="geometry">
            <mxRectangle width="30" height="30" as="alternateBounds" />
          </mxGeometry>
        </mxCell>
        <mxCell id="c6OgAKPzxv5L_kpb_E-i-250" value="listId&lt;span style=&quot;white-space: pre;&quot;&gt;&#x9;&lt;span style=&quot;white-space: pre;&quot;&gt;&#x9;&lt;span style=&quot;white-space: pre;&quot;&gt;&#x9;&lt;/span&gt;&lt;span style=&quot;white-space: pre;&quot;&gt;&#x9;&lt;/span&gt;&lt;/span&gt;&lt;/span&gt;UUID NOT NULL&amp;nbsp;" style="shape=partialRectangle;connectable=0;fillColor=none;top=0;left=0;bottom=0;right=0;align=left;spacingLeft=6;overflow=hidden;whiteSpace=wrap;html=1;fontSize=16;" vertex="1" parent="c6OgAKPzxv5L_kpb_E-i-248">
          <mxGeometry x="30" width="389" height="30" as="geometry">
            <mxRectangle width="389" height="30" as="alternateBounds" />
          </mxGeometry>
        </mxCell>
        <mxCell id="c6OgAKPzxv5L_kpb_E-i-251" value="" style="shape=tableRow;horizontal=0;startSize=0;swimlaneHead=0;swimlaneBody=0;fillColor=none;collapsible=0;dropTarget=0;points=[[0,0.5],[1,0.5]];portConstraint=eastwest;top=1;left=0;right=0;bottom=0;fontSize=16;swimlaneFillColor=none;swimlaneLine=1;separatorColor=#000000;" vertex="1" parent="c6OgAKPzxv5L_kpb_E-i-220">
          <mxGeometry y="300" width="419" height="30" as="geometry" />
        </mxCell>
        <mxCell id="c6OgAKPzxv5L_kpb_E-i-252" value="" style="shape=partialRectangle;connectable=0;fillColor=none;top=0;left=0;bottom=0;right=0;editable=1;overflow=hidden;whiteSpace=wrap;html=1;fontSize=16;" vertex="1" parent="c6OgAKPzxv5L_kpb_E-i-251">
          <mxGeometry width="30" height="30" as="geometry">
            <mxRectangle width="30" height="30" as="alternateBounds" />
          </mxGeometry>
        </mxCell>
        <mxCell id="c6OgAKPzxv5L_kpb_E-i-253" value="ITEM_LIST_FK(listId)" style="shape=partialRectangle;connectable=0;fillColor=none;top=0;left=0;bottom=0;right=0;align=left;spacingLeft=6;overflow=hidden;whiteSpace=wrap;html=1;fontSize=16;" vertex="1" parent="c6OgAKPzxv5L_kpb_E-i-251">
          <mxGeometry x="30" width="389" height="30" as="geometry">
            <mxRectangle width="389" height="30" as="alternateBounds" />
          </mxGeometry>
        </mxCell>
        <mxCell id="c6OgAKPzxv5L_kpb_E-i-254" style="edgeStyle=none;curved=1;rounded=0;orthogonalLoop=1;jettySize=auto;html=1;entryX=1;entryY=0.5;entryDx=0;entryDy=0;fontFamily=Helvetica;fontSize=16;fontColor=default;startSize=0;endSize=8;endArrow=ERmany;endFill=0;" edge="1" parent="1" source="c6OgAKPzxv5L_kpb_E-i-199" target="c6OgAKPzxv5L_kpb_E-i-230">
          <mxGeometry relative="1" as="geometry" />
        </mxCell>
      </root>
    </mxGraphModel>
  </diagram>
</mxfile>
